  0
SECTION
  2
HEADER
  9
$ACADVER
  1
AC1015
  9
$ACADMAINTVER
 70
    13
  9
$DWGCODEPAGE
  3
ANSI_1252
  9
$INSBASE
 10
0.0
 20
0.0
 30
0.0
  9
$EXTMIN
 10
-16.99480999999928
 20
0.1051089999999988
 30
0.0
  9
$EXTMAX
 10
243.45781
 20
142.163545263977
 30
0.0
  9
$LIMMIN
 10
0.0
 20
0.0
  9
$LIMMAX
 10
12.0
 20
9.0
  9
$ORTHOMODE
 70
     0
  9
$REGENMODE
 70
     1
  9
$FILLMODE
 70
     0
  9
$QTEXTMODE
 70
     0
  9
$MIRRTEXT
 70
     1
  9
$LTSCALE
 40
1.0
  9
$ATTMODE
 70
     1
  9
$TEXTSIZE
 40
0.2
  9
$TRACEWID
 40
0.05
  9
$TEXTSTYLE
  7
Standard
  9
$CLAYER
  8
0
  9
$CELTYPE
  6
Continuous
  9
$CECOLOR
 62
   256
  9
$CELTSCALE
 40
1.0
  9
$DISPSILH
 70
     0
  9
$DIMSCALE
 40
1.0
  9
$DIMASZ
 40
0.18
  9
$DIMEXO
 40
0.0625
  9
$DIMDLI
 40
0.38
  9
$DIMRND
 40
0.0
  9
$DIMDLE
 40
0.0
  9
$DIMEXE
 40
0.18
  9
$DIMTP
 40
0.0
  9
$DIMTM
 40
0.0
  9
$DIMTXT
 40
0.18
  9
$DIMCEN
 40
0.09
  9
$DIMTSZ
 40
0.0
  9
$DIMTOL
 70
     0
  9
$DIMLIM
 70
     0
  9
$DIMTIH
 70
     1
  9
$DIMTOH
 70
     1
  9
$DIMSE1
 70
     0
  9
$DIMSE2
 70
     0
  9
$DIMTAD
 70
     0
  9
$DIMZIN
 70
     0
  9
$DIMBLK
  1

  9
$DIMASO
 70
     1
  9
$DIMSHO
 70
     1
  9
$DIMPOST
  1

  9
$DIMAPOST
  1

  9
$DIMALT
 70
     0
  9
$DIMALTD
 70
     2
  9
$DIMALTF
 40
25.4
  9
$DIMLFAC
 40
1.0
  9
$DIMTOFL
 70
     0
  9
$DIMTVP
 40
0.0
  9
$DIMTIX
 70
     0
  9
$DIMSOXD
 70
     0
  9
$DIMSAH
 70
     0
  9
$DIMBLK1
  1

  9
$DIMBLK2
  1

  9
$DIMSTYLE
  2
Standard
  9
$DIMCLRD
 70
     0
  9
$DIMCLRE
 70
     0
  9
$DIMCLRT
 70
     0
  9
$DIMTFAC
 40
1.0
  9
$DIMGAP
 40
0.09
  9
$DIMJUST
 70
     0
  9
$DIMSD1
 70
     0
  9
$DIMSD2
 70
     0
  9
$DIMTOLJ
 70
     1
  9
$DIMTZIN
 70
     0
  9
$DIMALTZ
 70
     0
  9
$DIMALTTZ
 70
     0
  9
$DIMUPT
 70
     0
  9
$DIMDEC
 70
     4
  9
$DIMTDEC
 70
     4
  9
$DIMALTU
 70
     2
  9
$DIMALTTD
 70
     2
  9
$DIMTXSTY
  7
Standard
  9
$DIMAUNIT
 70
     0
  9
$DIMADEC
 70
     0
  9
$DIMALTRND
 40
0.0
  9
$DIMAZIN
 70
     0
  9
$DIMDSEP
 70
    46
  9
$DIMATFIT
 70
     3
  9
$DIMFRAC
 70
     0
  9
$DIMLDRBLK
  1

  9
$DIMLUNIT
 70
     2
  9
$DIMLWD
 70
    -2
  9
$DIMLWE
 70
    -2
  9
$DIMTMOVE
 70
     0
  9
$LUNITS
 70
     2
  9
$LUPREC
 70
     4
  9
$SKETCHINC
 40
0.1
  9
$FILLETRAD
 40
2.0
  9
$AUNITS
 70
     0
  9
$AUPREC
 70
     0
  9
$MENU
  1
.
  9
$ELEVATION
 40
0.0
  9
$PELEVATION
 40
0.0
  9
$THICKNESS
 40
0.0
  9
$LIMCHECK
 70
     0
  9
$CHAMFERA
 40
0.0
  9
$CHAMFERB
 40
0.0
  9
$CHAMFERC
 40
0.0
  9
$CHAMFERD
 40
0.0
  9
$SKPOLY
 70
     0
  9
$TDCREATE
 40
2457591.790880208
  9
$TDUCREATE
 40
2457592.040880208
  9
$TDUPDATE
 40
2457591.804701678
  9
$TDUUPDATE
 40
2457592.054701678
  9
$TDINDWG
 40
0.0138215741
  9
$TDUSRTIMER
 40
0.0138215741
  9
$USRTIMER
 70
     1
  9
$ANGBASE
 50
0.0
  9
$ANGDIR
 70
     0
  9
$PDMODE
 70
     0
  9
$PDSIZE
 40
0.0
  9
$PLINEWID
 40
0.0
  9
$SPLFRAME
 70
     1
  9
$SPLINETYPE
 70
     6
  9
$SPLINESEGS
 70
     8
  9
$HANDSEED
  5
2CE
  9
$SURFTAB1
 70
     6
  9
$SURFTAB2
 70
     6
  9
$SURFTYPE
 70
     6
  9
$SURFU
 70
     6
  9
$SURFV
 70
     6
  9
$UCSBASE
  2

  9
$UCSNAME
  2

  9
$UCSORG
 10
0.0
 20
0.0
 30
0.0
  9
$UCSXDIR
 10
1.0
 20
0.0
 30
0.0
  9
$UCSYDIR
 10
0.0
 20
1.0
 30
0.0
  9
$UCSORTHOREF
  2

  9
$UCSORTHOVIEW
 70
     0
  9
$UCSORGTOP
 10
0.0
 20
0.0
 30
0.0
  9
$UCSORGBOTTOM
 10
0.0
 20
0.0
 30
0.0
  9
$UCSORGLEFT
 10
0.0
 20
0.0
 30
0.0
  9
$UCSORGRIGHT
 10
0.0
 20
0.0
 30
0.0
  9
$UCSORGFRONT
 10
0.0
 20
0.0
 30
0.0
  9
$UCSORGBACK
 10
0.0
 20
0.0
 30
0.0
  9
$PUCSBASE
  2

  9
$PUCSNAME
  2

  9
$PUCSORG
 10
0.0
 20
0.0
 30
0.0
  9
$PUCSXDIR
 10
1.0
 20
0.0
 30
0.0
  9
$PUCSYDIR
 10
0.0
 20
1.0
 30
0.0
  9
$PUCSORTHOREF
  2

  9
$PUCSORTHOVIEW
 70
     0
  9
$PUCSORGTOP
 10
0.0
 20
0.0
 30
0.0
  9
$PUCSORGBOTTOM
 10
0.0
 20
0.0
 30
0.0
  9
$PUCSORGLEFT
 10
0.0
 20
0.0
 30
0.0
  9
$PUCSORGRIGHT
 10
0.0
 20
0.0
 30
0.0
  9
$PUCSORGFRONT
 10
0.0
 20
0.0
 30
0.0
  9
$PUCSORGBACK
 10
0.0
 20
0.0
 30
0.0
  9
$USERI1
 70
     0
  9
$USERI2
 70
     0
  9
$USERI3
 70
     0
  9
$USERI4
 70
     0
  9
$USERI5
 70
     0
  9
$USERR1
 40
0.0
  9
$USERR2
 40
0.0
  9
$USERR3
 40
0.0
  9
$USERR4
 40
0.0
  9
$USERR5
 40
0.0
  9
$WORLDVIEW
 70
     1
  9
$SHADEDGE
 70
     3
  9
$SHADEDIF
 70
    70
  9
$TILEMODE
 70
     1
  9
$MAXACTVP
 70
    64
  9
$PINSBASE
 10
0.0
 20
0.0
 30
0.0
  9
$PLIMCHECK
 70
     0
  9
$PEXTMIN
 10
1.000000000000000E+20
 20
1.000000000000000E+20
 30
1.000000000000000E+20
  9
$PEXTMAX
 10
-1.000000000000000E+20
 20
-1.000000000000000E+20
 30
-1.000000000000000E+20
  9
$PLIMMIN
 10
0.0
 20
0.0
  9
$PLIMMAX
 10
12.0
 20
9.0
  9
$UNITMODE
 70
     0
  9
$VISRETAIN
 70
     1
  9
$PLINEGEN
 70
     0
  9
$PSLTSCALE
 70
     1
  9
$TREEDEPTH
 70
  3020
  9
$CMLSTYLE
  2
Standard
  9
$CMLJUST
 70
     0
  9
$CMLSCALE
 40
1.0
  9
$PROXYGRAPHICS
 70
     1
  9
$MEASUREMENT
 70
     0
  9
$CELWEIGHT
370
    -1
  9
$ENDCAPS
280
     0
  9
$JOINSTYLE
280
     0
  9
$LWDISPLAY
290
     0
  9
$INSUNITS
 70
     0
  9
$HYPERLINKBASE
  1

  9
$STYLESHEET
  1

  9
$XEDIT
290
     1
  9
$CEPSNTYPE
380
     0
  9
$PSTYLEMODE
290
     1
  9
$FINGERPRINTGUID
  2
{1C64CA57-C52E-4E95-9C91-2741F1F41464}
  9
$VERSIONGUID
  2
{241E5399-4B9B-4FBC-914A-1DEFCF4194BE}
  9
$EXTNAMES
290
     1
  9
$PSVPSCALE
 40
0.0
  9
$OLESTARTUP
290
     0
  0
ENDSEC
  0
SECTION
  2
CLASSES
  0
CLASS
  1
ACDBDICTIONARYWDFLT
  2
AcDbDictionaryWithDefault
  3
AutoCAD 2000
 90
        0
280
     0
281
     0
  0
CLASS
  1
ACDBPLACEHOLDER
  2
AcDbPlaceHolder
  3
AutoCAD 2000
 90
        0
280
     0
281
     0
  0
CLASS
  1
LAYOUT
  2
AcDbLayout
  3
AutoCAD 2000
 90
        0
280
     0
281
     0
  0
CLASS
  1
AEC_VARS_DWG_SETUP
  2
AecDbVarsDwgSetup
  3
AecBase|Version(3.0)
 90
      129
280
     0
281
     0
  0
CLASS
  1
DICTIONARYVAR
  2
AcDbDictionaryVar
  3
AutoCAD 2000
 90
        0
280
     0
281
     0
  0
ENDSEC
  0
SECTION
  2
TABLES
  0
TABLE
  2
VPORT
  5
8
330
0
100
AcDbSymbolTable
 70
     8
  0
VPORT
  5
2CD
330
8
100
AcDbSymbolTableRecord
100
AcDbViewportTableRecord
  2
*Active
 70
     0
 10
0.0
 20
0.0
 11
1.0
 21
1.0
 12
136.4929821184131
 22
61.99864816106742
 13
0.0
 23
0.0
 14
1.0
 24
1.0
 15
0.0
 25
0.0
 16
0.0
 26
0.0
 36
1.0
 17
0.0
 27
0.0
 37
0.0
 40
218.5129911811213
 41
2.014218009478673
 42
50.0
 43
0.0
 44
0.0
 50
0.0
 51
0.0
 71
     0
 72
   100
 73
     1
 74
     1
 75
     0
 76
     0
 77
     0
 78
     0
281
     0
 65
     1
110
0.0
120
0.0
130
0.0
111
1.0
121
0.0
131
0.0
112
0.0
122
1.0
132
0.0
 79
     0
146
0.0
  0
ENDTAB
  0
TABLE
  2
LTYPE
  5
5
330
0
100
AcDbSymbolTable
 70
     1
  0
LTYPE
  5
13
330
5
100
AcDbSymbolTableRecord
100
AcDbLinetypeTableRecord
  2
ByBlock
 70
     0
  3

 72
    65
 73
     0
 40
0.0
  0
LTYPE
  5
14
330
5
100
AcDbSymbolTableRecord
100
AcDbLinetypeTableRecord
  2
ByLayer
 70
     0
  3

 72
    65
 73
     0
 40
0.0
  0
LTYPE
  5
15
330
5
100
AcDbSymbolTableRecord
100
AcDbLinetypeTableRecord
  2
Continuous
 70
     0
  3
Solid line
 72
    65
 73
     0
 40
0.0
  0
ENDTAB
  0
TABLE
  2
LAYER
  5
2
330
0
100
AcDbSymbolTable
 70
     1
  0
LAYER
  5
10
330
2
100
AcDbSymbolTableRecord
100
AcDbLayerTableRecord
  2
0
 70
     0
 62
     7
  6
Continuous
370
    -3
390
F
  0
ENDTAB
  0
TABLE
  2
STYLE
  5
3
330
0
100
AcDbSymbolTable
 70
     2
  0
STYLE
  5
11
330
3
100
AcDbSymbolTableRecord
100
AcDbTextStyleTableRecord
  2
Standard
 70
     0
 40
0.0
 41
1.0
 50
0.0
 71
     0
 42
0.2
  3
txt
  4

  0
STYLE
  5
23F
330
3
100
AcDbSymbolTableRecord
100
AcDbTextStyleTableRecord
  2
5MM
 70
     0
 40
2.5
 41
1.0
 50
0.0
 71
     0
 42
2.5
  3
simplex
  4

  0
ENDTAB
  0
TABLE
  2
VIEW
  5
6
330
0
100
AcDbSymbolTable
 70
     0
  0
ENDTAB
  0
TABLE
  2
UCS
  5
7
330
0
100
AcDbSymbolTable
 70
     0
  0
ENDTAB
  0
TABLE
  2
APPID
  5
9
330
0
100
AcDbSymbolTable
 70
     6
  0
APPID
  5
12
330
9
100
AcDbSymbolTableRecord
100
AcDbRegAppTableRecord
  2
ACAD
 70
     0
  0
APPID
  5
241
330
9
100
AcDbSymbolTableRecord
100
AcDbRegAppTableRecord
  2
ADE
 70
     0
  0
APPID
  5
2BC
330
9
100
AcDbSymbolTableRecord
100
AcDbRegAppTableRecord
  2
AEC_DWGVARSSETUP_DATA
 70
     0
  0
APPID
  5
2BD
330
9
100
AcDbSymbolTableRecord
100
AcDbRegAppTableRecord
  2
ADCADD_ZZ
 70
     0
  0
APPID
  5
2BE
330
9
100
AcDbSymbolTableRecord
100
AcDbRegAppTableRecord
  2
SDSK_PMN
 70
     0
  0
APPID
  5
2C1
330
9
100
AcDbSymbolTableRecord
100
AcDbRegAppTableRecord
  2
DCO15
 70
     0
  0
ENDTAB
  0
TABLE
  2
DIMSTYLE
  5
A
330
0
100
AcDbSymbolTable
 70
     2
100
AcDbDimStyleTable
 71
     0
  0
DIMSTYLE
105
12C
330
A
100
AcDbSymbolTableRecord
100
AcDbDimStyleTableRecord
  2
Standard
 70
     0
340
11
  0
DIMSTYLE
105
240
330
A
100
AcDbSymbolTableRecord
100
AcDbDimStyleTableRecord
  2
ISO-25
 70
     0
 41
2.5
 42
0.625
 43
3.75
 44
1.25
 73
     0
 74
     0
 77
     1
 78
     8
140
2.5
141
2.5
143
0.03937007874016
147
0.625
171
     3
172
     1
271
     3
272
     3
274
     3
275
     1
279
     2
284
     8
285
     8
286
     8
340
23F
  0
ENDTAB
  0
TABLE
  2
BLOCK_RECORD
  5
1
330
0
100
AcDbSymbolTable
 70
     5
  0
BLOCK_RECORD
  5
1E
330
1
100
AcDbSymbolTableRecord
100
AcDbBlockTableRecord
  2
*Model_Space
340
21
  0
BLOCK_RECORD
  5
1A
330
1
100
AcDbSymbolTableRecord
100
AcDbBlockTableRecord
  2
*Paper_Space
340
1D
  0
BLOCK_RECORD
  5
12F
330
1
100
AcDbSymbolTableRecord
100
AcDbBlockTableRecord
  2
ADCADD_ZZ
340
0
102
{BLKREFS
331
132
102
}
  0
BLOCK_RECORD
  5
137
330
1
100
AcDbSymbolTableRecord
100
AcDbBlockTableRecord
  2
A$C662F6AF6
340
0
  0
BLOCK_RECORD
  5
2A9
330
1
100
AcDbSymbolTableRecord
100
AcDbBlockTableRecord
  2
A$C73D55510
340
0
  0
ENDTAB
  0
ENDSEC
  0
SECTION
  2
BLOCKS
  0
BLOCK
  5
1F
330
1E
100
AcDbEntity
  8
0
100
AcDbBlockBegin
  2
*Model_Space
 70
     0
 10
0.0
 20
0.0
 30
0.0
  3
*Model_Space
  1

  0
ENDBLK
  5
20
330
1E
100
AcDbEntity
  8
0
100
AcDbBlockEnd
  0
BLOCK
  5
1B
330
1A
100
AcDbEntity
 67
     1
  8
0
100
AcDbBlockBegin
  2
*Paper_Space
 70
     0
 10
0.0
 20
0.0
 30
0.0
  3
*Paper_Space
  1

  0
ENDBLK
  5
1C
330
1A
100
AcDbEntity
 67
     1
  8
0
100
AcDbBlockEnd
  0
BLOCK
  5
130
330
12F
100
AcDbEntity
  8
0
100
AcDbBlockBegin
  2
ADCADD_ZZ
 70
     0
 10
0.0
 20
0.0
 30
0.0
  3
ADCADD_ZZ
  1

  0
ENDBLK
  5
131
330
12F
100
AcDbEntity
  8
0
100
AcDbBlockEnd
  0
BLOCK
  5
23D
330
137
100
AcDbEntity
  8
0
100
AcDbBlockBegin
  2
A$C662F6AF6
 70
     0
 10
0.0
 20
0.0
 30
0.0
  3
A$C662F6AF6
  1

  0
LINE
  5
138
330
137
100
AcDbEntity
  8
0
 62
     0
100
AcDbLine
 10
2.999991501401938
 20
124.299891857838
 30
0.0
 11
121.3002915014019
 21
124.299891857838
 31
0.0
  0
LINE
  5
139
330
137
100
AcDbEntity
  8
0
 62
     0
100
AcDbLine
 10
121.3002915014019
 20
0.0000008578380708
 30
0.0
 11
2.999991501401938
 21
0.0000008578380708
 31
0.0
  0
LINE
  5
13A
330
137
100
AcDbEntity
  8
0
 62
     0
100
AcDbLine
 10
-0.0000018985980619
 20
2.99999185783807
 30
0.0
 11
-0.0000018985980619
 21
121.300891857838
 31
0.0
  0
LWPOLYLINE
  5
13B
330
137
100
AcDbEntity
  8
0
 62
     0
100
AcDbPolyline
 90
        4
 70
     1
 43
0.0
 10
7.525481501401937
 20
7.52546185783807
 10
7.525481501401937
 20
21.52499185783807
 10
21.52499150140193
 20
21.52499185783807
 10
21.52499150140193
 20
7.52546185783807
  0
LINE
  5
13C
330
137
100
AcDbEntity
  8
0
 62
     0
100
AcDbLine
 10
1.617811501401938
 20
3.71380185783807
 30
0.0
 11
2.035361501401938
 21
3.92741185783807
 31
0.0
  0
LINE
  5
13D
330
137
100
AcDbEntity
  8
0
 62
     0
100
AcDbLine
 10
2.035361501401938
 20
1.07349185783807
 30
0.0
 11
1.617811501401938
 21
1.28571185783807
 31
0.0
  0
LINE
  5
13E
330
137
100
AcDbEntity
  8
0
 62
     0
100
AcDbLine
 10
2.072571501401938
 20
0.1474508578380708
 30
0.0
 11
1.852081501401938
 21
0.2287548578380708
 31
0.0
  0
LINE
  5
13F
330
137
100
AcDbEntity
  8
0
 62
     0
100
AcDbLine
 10
1.285711501401938
 20
3.38171185783807
 30
0.0
 11
1.617811501401938
 21
3.71380185783807
 31
0.0
  0
LINE
  5
140
330
137
100
AcDbEntity
  8
0
 62
     0
100
AcDbLine
 10
1.073491501401938
 20
2.964161857838071
 30
0.0
 11
1.285711501401938
 21
3.38171185783807
 31
0.0
  0
LINE
  5
141
330
137
100
AcDbEntity
  8
0
 62
     0
100
AcDbLine
 10
1.000451501401938
 20
2.49976185783807
 30
0.0
 11
1.073491501401938
 21
2.964161857838071
 31
0.0
  0
LINE
  5
142
330
137
100
AcDbEntity
  8
0
 62
     0
100
AcDbLine
 10
1.073491501401938
 20
2.03674185783807
 30
0.0
 11
1.000451501401938
 21
2.49976185783807
 31
0.0
  0
LINE
  5
143
330
137
100
AcDbEntity
  8
0
 62
     0
100
AcDbLine
 10
1.285711501401938
 20
1.61782185783807
 30
0.0
 11
1.073491501401938
 21
2.03674185783807
 31
0.0
  0
LINE
  5
144
330
137
100
AcDbEntity
  8
0
 62
     0
100
AcDbLine
 10
1.617811501401938
 20
1.28571185783807
 30
0.0
 11
1.285711501401938
 21
1.61782185783807
 31
0.0
  0
LINE
  5
145
330
137
100
AcDbEntity
  8
0
 62
     0
100
AcDbLine
 10
0.0096445014019382
 20
2.76572185783807
 30
0.0
 11
-0.0000018985980619
 21
2.99999185783807
 31
0.0
  0
LINE
  5
146
330
137
100
AcDbEntity
  8
0
 62
     0
100
AcDbLine
 10
0.0372055014019382
 20
2.53145185783807
 30
0.0
 11
0.0096445014019382
 21
2.76572185783807
 31
0.0
  0
LINE
  5
147
330
137
100
AcDbEntity
  8
0
 62
     0
100
AcDbLine
 10
0.0826805014019382
 20
2.29994185783807
 30
0.0
 11
0.0372055014019382
 21
2.53145185783807
 31
0.0
  0
LINE
  5
148
330
137
100
AcDbEntity
  8
0
 62
     0
100
AcDbLine
 10
0.1474485014019382
 20
2.07395185783807
 30
0.0
 11
0.0826805014019382
 21
2.29994185783807
 31
0.0
  0
LINE
  5
149
330
137
100
AcDbEntity
  8
0
 62
     0
100
AcDbLine
 10
0.2273745014019382
 20
1.85208185783807
 30
0.0
 11
0.1474485014019382
 21
2.07395185783807
 31
0.0
  0
LINE
  5
14A
330
137
100
AcDbEntity
  8
0
 62
     0
100
AcDbLine
 10
0.3265945014019381
 20
1.63849185783807
 30
0.0
 11
0.2273745014019382
 21
1.85208185783807
 31
0.0
  0
LINE
  5
14B
330
137
100
AcDbEntity
  8
0
 62
     0
100
AcDbLine
 10
0.4423475014019383
 20
1.43316185783807
 30
0.0
 11
0.3265945014019381
 21
1.63849185783807
 31
0.0
  0
LINE
  5
14C
330
137
100
AcDbEntity
  8
0
 62
     0
100
AcDbLine
 10
0.5732635014019382
 20
1.23748185783807
 30
0.0
 11
0.4423475014019383
 21
1.43316185783807
 31
0.0
  0
LINE
  5
14D
330
137
100
AcDbEntity
  8
0
 62
     0
100
AcDbLine
 10
0.7193345014019382
 20
1.05282185783807
 30
0.0
 11
0.5732635014019382
 21
1.23748185783807
 31
0.0
  0
LINE
  5
14E
330
137
100
AcDbEntity
  8
0
 62
     0
100
AcDbLine
 10
0.8791855014019381
 20
0.8791898578380708
 30
0.0
 11
0.7193345014019382
 21
1.05282185783807
 31
0.0
  0
LINE
  5
14F
330
137
100
AcDbEntity
  8
0
 62
     0
100
AcDbLine
 10
1.051441501401938
 20
0.7193358578380709
 30
0.0
 11
0.8791855014019381
 21
0.8791898578380708
 31
0.0
  0
LINE
  5
150
330
137
100
AcDbEntity
  8
0
 62
     0
100
AcDbLine
 10
1.237481501401938
 20
0.5732638578380708
 30
0.0
 11
1.051441501401938
 21
0.7193358578380709
 31
0.0
  0
LINE
  5
151
330
137
100
AcDbEntity
  8
0
 62
     0
100
AcDbLine
 10
1.433161501401938
 20
0.4423518578380709
 30
0.0
 11
1.237481501401938
 21
0.5732638578380708
 31
0.0
  0
LINE
  5
152
330
137
100
AcDbEntity
  8
0
 62
     0
100
AcDbLine
 10
1.638491501401938
 20
0.3279738578380708
 30
0.0
 11
1.433161501401938
 21
0.4423518578380709
 31
0.0
  0
LINE
  5
153
330
137
100
AcDbEntity
  8
0
 62
     0
100
AcDbLine
 10
1.852081501401938
 20
0.2287548578380708
 30
0.0
 11
1.638491501401938
 21
0.3279738578380708
 31
0.0
  0
LINE
  5
154
330
137
100
AcDbEntity
  8
0
 62
     0
100
AcDbLine
 10
2.035361501401938
 20
3.92741185783807
 30
0.0
 11
2.499761501401938
 21
4.000441857838071
 31
0.0
  0
LINE
  5
155
330
137
100
AcDbEntity
  8
0
 62
     0
100
AcDbLine
 10
2.499761501401938
 20
1.00046185783807
 30
0.0
 11
2.035361501401938
 21
1.07349185783807
 31
0.0
  0
LINE
  5
156
330
137
100
AcDbEntity
  8
0
 62
     0
100
AcDbLine
 10
2.964161501401937
 20
1.07349185783807
 30
0.0
 11
2.499761501401938
 21
1.00046185783807
 31
0.0
  0
LINE
  5
157
330
137
100
AcDbEntity
  8
0
 62
     0
100
AcDbLine
 10
3.381701501401937
 20
1.28571185783807
 30
0.0
 11
2.964161501401937
 21
1.07349185783807
 31
0.0
  0
LINE
  5
158
330
137
100
AcDbEntity
  8
0
 62
     0
100
AcDbLine
 10
3.713821501401938
 20
1.61782185783807
 30
0.0
 11
3.381701501401937
 21
1.28571185783807
 31
0.0
  0
LINE
  5
159
330
137
100
AcDbEntity
  8
0
 62
     0
100
AcDbLine
 10
3.927391501401937
 20
2.03674185783807
 30
0.0
 11
3.713821501401938
 21
1.61782185783807
 31
0.0
  0
LINE
  5
15A
330
137
100
AcDbEntity
  8
0
 62
     0
100
AcDbLine
 10
4.000451501401937
 20
2.49976185783807
 30
0.0
 11
3.927391501401937
 21
2.03674185783807
 31
0.0
  0
LINE
  5
15B
330
137
100
AcDbEntity
  8
0
 62
     0
100
AcDbLine
 10
3.927391501401937
 20
2.964161857838071
 30
0.0
 11
4.000451501401937
 21
2.49976185783807
 31
0.0
  0
LINE
  5
15C
330
137
100
AcDbEntity
  8
0
 62
     0
100
AcDbLine
 10
3.713821501401938
 20
3.38171185783807
 30
0.0
 11
3.927391501401937
 21
2.964161857838071
 31
0.0
  0
LINE
  5
15D
330
137
100
AcDbEntity
  8
0
 62
     0
100
AcDbLine
 10
3.381701501401937
 20
3.71380185783807
 30
0.0
 11
3.713821501401938
 21
3.38171185783807
 31
0.0
  0
LINE
  5
15E
330
137
100
AcDbEntity
  8
0
 62
     0
100
AcDbLine
 10
2.964161501401937
 20
3.92741185783807
 30
0.0
 11
3.381701501401937
 21
3.71380185783807
 31
0.0
  0
LINE
  5
15F
330
137
100
AcDbEntity
  8
0
 62
     0
100
AcDbLine
 10
2.499761501401938
 20
4.000441857838071
 30
0.0
 11
2.964161501401937
 21
3.92741185783807
 31
0.0
  0
LINE
  5
160
330
137
100
AcDbEntity
  8
0
 62
     0
100
AcDbLine
 10
2.299941501401938
 20
0.0840608578380708
 30
0.0
 11
2.072571501401938
 21
0.1474508578380708
 31
0.0
  0
LINE
  5
161
330
137
100
AcDbEntity
  8
0
 62
     0
100
AcDbLine
 10
2.531451501401937
 20
0.0372078578380708
 30
0.0
 11
2.299941501401938
 21
0.0840608578380708
 31
0.0
  0
LINE
  5
162
330
137
100
AcDbEntity
  8
0
 62
     0
100
AcDbLine
 10
2.765721501401938
 20
0.0096468578380708
 30
0.0
 11
2.531451501401937
 21
0.0372078578380708
 31
0.0
  0
LINE
  5
163
330
137
100
AcDbEntity
  8
0
 62
     0
100
AcDbLine
 10
2.999991501401938
 20
0.0000008578380708
 30
0.0
 11
2.765721501401938
 21
0.0096468578380708
 31
0.0
  0
LINE
  5
164
330
137
100
AcDbEntity
  8
0
 62
     0
100
AcDbLine
 10
7.525481501401937
 20
102.775891857838
 30
0.0
 11
7.525481501401937
 21
116.774891857838
 31
0.0
  0
LINE
  5
165
330
137
100
AcDbEntity
  8
0
 62
     0
100
AcDbLine
 10
21.52499150140193
 20
116.774891857838
 30
0.0
 11
21.52499150140193
 21
102.775891857838
 31
0.0
  0
LINE
  5
166
330
137
100
AcDbEntity
  8
0
 62
     0
100
AcDbLine
 10
21.52499150140193
 20
31.33799185783807
 30
0.0
 11
7.525481501401937
 21
31.33799185783807
 31
0.0
  0
LINE
  5
167
330
137
100
AcDbEntity
  8
0
 62
     0
100
AcDbLine
 10
7.525481501401937
 20
45.33729185783807
 30
0.0
 11
21.52499150140193
 21
45.33729185783807
 31
0.0
  0
LINE
  5
168
330
137
100
AcDbEntity
  8
0
 62
     0
100
AcDbLine
 10
21.52499150140193
 20
55.15049185783807
 30
0.0
 11
7.525481501401937
 21
55.15049185783807
 31
0.0
  0
LINE
  5
169
330
137
100
AcDbEntity
  8
0
 62
     0
100
AcDbLine
 10
7.525481501401937
 20
69.14979185783806
 30
0.0
 11
21.52499150140193
 21
69.14979185783806
 31
0.0
  0
LINE
  5
16A
330
137
100
AcDbEntity
  8
0
 62
     0
100
AcDbLine
 10
7.525481501401937
 20
31.33799185783807
 30
0.0
 11
7.525481501401937
 21
45.33729185783807
 31
0.0
  0
LINE
  5
16B
330
137
100
AcDbEntity
  8
0
 62
     0
100
AcDbLine
 10
7.525481501401937
 20
55.15049185783807
 30
0.0
 11
7.525481501401937
 21
69.14979185783806
 31
0.0
  0
LINE
  5
16C
330
137
100
AcDbEntity
  8
0
 62
     0
100
AcDbLine
 10
21.52499150140193
 20
45.33729185783807
 30
0.0
 11
21.52499150140193
 21
31.33799185783807
 31
0.0
  0
LINE
  5
16D
330
137
100
AcDbEntity
  8
0
 62
     0
100
AcDbLine
 10
21.52499150140193
 20
69.14979185783806
 30
0.0
 11
21.52499150140193
 21
55.15049185783807
 31
0.0
  0
LINE
  5
16E
330
137
100
AcDbEntity
  8
0
 62
     0
100
AcDbLine
 10
21.52499150140193
 20
78.96299185783807
 30
0.0
 11
7.525481501401937
 21
78.96299185783807
 31
0.0
  0
LINE
  5
16F
330
137
100
AcDbEntity
  8
0
 62
     0
100
AcDbLine
 10
7.525481501401937
 20
92.96369185783808
 30
0.0
 11
21.52499150140193
 21
92.96369185783808
 31
0.0
  0
LINE
  5
170
330
137
100
AcDbEntity
  8
0
 62
     0
100
AcDbLine
 10
21.52499150140193
 20
102.775891857838
 30
0.0
 11
7.525481501401937
 21
102.775891857838
 31
0.0
  0
LINE
  5
171
330
137
100
AcDbEntity
  8
0
 62
     0
100
AcDbLine
 10
7.525481501401937
 20
78.96299185783807
 30
0.0
 11
7.525481501401937
 21
92.96369185783808
 31
0.0
  0
LINE
  5
172
330
137
100
AcDbEntity
  8
0
 62
     0
100
AcDbLine
 10
21.52499150140193
 20
92.96369185783808
 30
0.0
 11
21.52499150140193
 21
78.96299185783807
 31
0.0
  0
LINE
  5
173
330
137
100
AcDbEntity
  8
0
 62
     0
100
AcDbLine
 10
7.525481501401937
 20
116.774891857838
 30
0.0
 11
21.52499150140193
 21
116.774891857838
 31
0.0
  0
LINE
  5
174
330
137
100
AcDbEntity
  8
0
 62
     0
100
AcDbLine
 10
1.617811501401938
 20
123.014891857838
 30
0.0
 11
2.035361501401938
 21
123.226891857838
 31
0.0
  0
LINE
  5
175
330
137
100
AcDbEntity
  8
0
 62
     0
100
AcDbLine
 10
2.035361501401938
 20
120.372891857838
 30
0.0
 11
1.617811501401938
 21
120.586891857838
 31
0.0
  0
LINE
  5
176
330
137
100
AcDbEntity
  8
0
 62
     0
100
AcDbLine
 10
1.852081501401938
 20
124.072891857838
 30
0.0
 11
2.072571501401938
 21
124.152891857838
 31
0.0
  0
LINE
  5
177
330
137
100
AcDbEntity
  8
0
 62
     0
100
AcDbLine
 10
1.285711501401938
 20
122.682891857838
 30
0.0
 11
1.617811501401938
 21
123.014891857838
 31
0.0
  0
LINE
  5
178
330
137
100
AcDbEntity
  8
0
 62
     0
100
AcDbLine
 10
1.073491501401938
 20
122.264891857838
 30
0.0
 11
1.285711501401938
 21
122.682891857838
 31
0.0
  0
LINE
  5
179
330
137
100
AcDbEntity
  8
0
 62
     0
100
AcDbLine
 10
1.000451501401938
 20
121.800891857838
 30
0.0
 11
1.073491501401938
 21
122.264891857838
 31
0.0
  0
LINE
  5
17A
330
137
100
AcDbEntity
  8
0
 62
     0
100
AcDbLine
 10
1.073491501401938
 20
121.335891857838
 30
0.0
 11
1.000451501401938
 21
121.800891857838
 31
0.0
  0
LINE
  5
17B
330
137
100
AcDbEntity
  8
0
 62
     0
100
AcDbLine
 10
1.285711501401938
 20
120.918891857838
 30
0.0
 11
1.073491501401938
 21
121.335891857838
 31
0.0
  0
LINE
  5
17C
330
137
100
AcDbEntity
  8
0
 62
     0
100
AcDbLine
 10
1.617811501401938
 20
120.586891857838
 30
0.0
 11
1.285711501401938
 21
120.918891857838
 31
0.0
  0
LINE
  5
17D
330
137
100
AcDbEntity
  8
0
 62
     0
100
AcDbLine
 10
1.638491501401938
 20
123.973891857838
 30
0.0
 11
1.852081501401938
 21
124.072891857838
 31
0.0
  0
LINE
  5
17E
330
137
100
AcDbEntity
  8
0
 62
     0
100
AcDbLine
 10
1.433161501401938
 20
123.857891857838
 30
0.0
 11
1.638491501401938
 21
123.973891857838
 31
0.0
  0
LINE
  5
17F
330
137
100
AcDbEntity
  8
0
 62
     0
100
AcDbLine
 10
1.237481501401938
 20
123.726891857838
 30
0.0
 11
1.433161501401938
 21
123.857891857838
 31
0.0
  0
LINE
  5
180
330
137
100
AcDbEntity
  8
0
 62
     0
100
AcDbLine
 10
1.051441501401938
 20
123.580891857838
 30
0.0
 11
1.237481501401938
 21
123.726891857838
 31
0.0
  0
LINE
  5
181
330
137
100
AcDbEntity
  8
0
 62
     0
100
AcDbLine
 10
0.8791855014019381
 20
123.420891857838
 30
0.0
 11
1.051441501401938
 21
123.580891857838
 31
0.0
  0
LINE
  5
182
330
137
100
AcDbEntity
  8
0
 62
     0
100
AcDbLine
 10
0.7193345014019382
 20
123.248891857838
 30
0.0
 11
0.8791855014019381
 21
123.420891857838
 31
0.0
  0
LINE
  5
183
330
137
100
AcDbEntity
  8
0
 62
     0
100
AcDbLine
 10
0.5732635014019382
 20
123.062891857838
 30
0.0
 11
0.7193345014019382
 21
123.248891857838
 31
0.0
  0
LINE
  5
184
330
137
100
AcDbEntity
  8
0
 62
     0
100
AcDbLine
 10
0.4423475014019383
 20
122.866891857838
 30
0.0
 11
0.5732635014019382
 21
123.062891857838
 31
0.0
  0
LINE
  5
185
330
137
100
AcDbEntity
  8
0
 62
     0
100
AcDbLine
 10
0.3265945014019381
 20
122.661891857838
 30
0.0
 11
0.4423475014019383
 21
122.866891857838
 31
0.0
  0
LINE
  5
186
330
137
100
AcDbEntity
  8
0
 62
     0
100
AcDbLine
 10
0.2273745014019382
 20
122.447891857838
 30
0.0
 11
0.3265945014019381
 21
122.661891857838
 31
0.0
  0
LINE
  5
187
330
137
100
AcDbEntity
  8
0
 62
     0
100
AcDbLine
 10
0.1474485014019382
 20
122.227891857838
 30
0.0
 11
0.2273745014019382
 21
122.447891857838
 31
0.0
  0
LINE
  5
188
330
137
100
AcDbEntity
  8
0
 62
     0
100
AcDbLine
 10
0.0826805014019382
 20
122.000891857838
 30
0.0
 11
0.1474485014019382
 21
122.227891857838
 31
0.0
  0
LINE
  5
189
330
137
100
AcDbEntity
  8
0
 62
     0
100
AcDbLine
 10
0.0372055014019382
 20
121.768891857838
 30
0.0
 11
0.0826805014019382
 21
122.000891857838
 31
0.0
  0
LINE
  5
18A
330
137
100
AcDbEntity
  8
0
 62
     0
100
AcDbLine
 10
0.0096445014019382
 20
121.534891857838
 30
0.0
 11
0.0372055014019382
 21
121.768891857838
 31
0.0
  0
LINE
  5
18B
330
137
100
AcDbEntity
  8
0
 62
     0
100
AcDbLine
 10
-0.0000018985980619
 20
121.300891857838
 30
0.0
 11
0.0096445014019382
 21
121.534891857838
 31
0.0
  0
LINE
  5
18C
330
137
100
AcDbEntity
  8
0
 62
     0
100
AcDbLine
 10
2.035361501401938
 20
123.226891857838
 30
0.0
 11
2.499761501401938
 21
123.299891857838
 31
0.0
  0
LINE
  5
18D
330
137
100
AcDbEntity
  8
0
 62
     0
100
AcDbLine
 10
2.499761501401938
 20
120.299891857838
 30
0.0
 11
2.035361501401938
 21
120.372891857838
 31
0.0
  0
LINE
  5
18E
330
137
100
AcDbEntity
  8
0
 62
     0
100
AcDbLine
 10
2.964161501401937
 20
120.372891857838
 30
0.0
 11
2.499761501401938
 21
120.299891857838
 31
0.0
  0
LINE
  5
18F
330
137
100
AcDbEntity
  8
0
 62
     0
100
AcDbLine
 10
3.381701501401937
 20
120.586891857838
 30
0.0
 11
2.964161501401937
 21
120.372891857838
 31
0.0
  0
LINE
  5
190
330
137
100
AcDbEntity
  8
0
 62
     0
100
AcDbLine
 10
3.713821501401938
 20
120.918891857838
 30
0.0
 11
3.381701501401937
 21
120.586891857838
 31
0.0
  0
LINE
  5
191
330
137
100
AcDbEntity
  8
0
 62
     0
100
AcDbLine
 10
3.927391501401937
 20
121.335891857838
 30
0.0
 11
3.713821501401938
 21
120.918891857838
 31
0.0
  0
LINE
  5
192
330
137
100
AcDbEntity
  8
0
 62
     0
100
AcDbLine
 10
4.000451501401937
 20
121.800891857838
 30
0.0
 11
3.927391501401937
 21
121.335891857838
 31
0.0
  0
LINE
  5
193
330
137
100
AcDbEntity
  8
0
 62
     0
100
AcDbLine
 10
3.927391501401937
 20
122.264891857838
 30
0.0
 11
4.000451501401937
 21
121.800891857838
 31
0.0
  0
LINE
  5
194
330
137
100
AcDbEntity
  8
0
 62
     0
100
AcDbLine
 10
3.713821501401938
 20
122.682891857838
 30
0.0
 11
3.927391501401937
 21
122.264891857838
 31
0.0
  0
LINE
  5
195
330
137
100
AcDbEntity
  8
0
 62
     0
100
AcDbLine
 10
3.381701501401937
 20
123.014891857838
 30
0.0
 11
3.713821501401938
 21
122.682891857838
 31
0.0
  0
LINE
  5
196
330
137
100
AcDbEntity
  8
0
 62
     0
100
AcDbLine
 10
2.964161501401937
 20
123.226891857838
 30
0.0
 11
3.381701501401937
 21
123.014891857838
 31
0.0
  0
LINE
  5
197
330
137
100
AcDbEntity
  8
0
 62
     0
100
AcDbLine
 10
2.499761501401938
 20
123.299891857838
 30
0.0
 11
2.964161501401937
 21
123.226891857838
 31
0.0
  0
LINE
  5
198
330
137
100
AcDbEntity
  8
0
 62
     0
100
AcDbLine
 10
2.765721501401938
 20
124.290891857838
 30
0.0
 11
2.999991501401938
 21
124.299891857838
 31
0.0
  0
LINE
  5
199
330
137
100
AcDbEntity
  8
0
 62
     0
100
AcDbLine
 10
2.531451501401937
 20
124.262891857838
 30
0.0
 11
2.765721501401938
 21
124.290891857838
 31
0.0
  0
LINE
  5
19A
330
137
100
AcDbEntity
  8
0
 62
     0
100
AcDbLine
 10
2.299941501401938
 20
124.217891857838
 30
0.0
 11
2.531451501401937
 21
124.262891857838
 31
0.0
  0
LINE
  5
19B
330
137
100
AcDbEntity
  8
0
 62
     0
100
AcDbLine
 10
2.072571501401938
 20
124.152891857838
 30
0.0
 11
2.299941501401938
 21
124.217891857838
 31
0.0
  0
LINE
  5
19C
330
137
100
AcDbEntity
  8
0
 62
     0
100
AcDbLine
 10
124.3002915014019
 20
121.300891857838
 30
0.0
 11
124.3002915014019
 21
2.99999185783807
 31
0.0
  0
LINE
  5
19D
330
137
100
AcDbEntity
  8
0
 62
     0
100
AcDbLine
 10
116.7752915014019
 20
7.52546185783807
 30
0.0
 11
102.7752915014019
 21
7.52546185783807
 31
0.0
  0
LINE
  5
19E
330
137
100
AcDbEntity
  8
0
 62
     0
100
AcDbLine
 10
102.7752915014019
 20
21.52499185783807
 30
0.0
 11
116.7752915014019
 21
21.52499185783807
 31
0.0
  0
LINE
  5
19F
330
137
100
AcDbEntity
  8
0
 62
     0
100
AcDbLine
 10
31.33659150140193
 20
7.52546185783807
 30
0.0
 11
31.33659150140193
 21
21.52499185783807
 31
0.0
  0
LINE
  5
1A0
330
137
100
AcDbEntity
  8
0
 62
     0
100
AcDbLine
 10
45.33739150140194
 20
21.52499185783807
 30
0.0
 11
45.33739150140194
 21
7.52546185783807
 31
0.0
  0
LINE
  5
1A1
330
137
100
AcDbEntity
  8
0
 62
     0
100
AcDbLine
 10
45.33739150140194
 20
7.52546185783807
 30
0.0
 11
31.33659150140193
 21
7.52546185783807
 31
0.0
  0
LINE
  5
1A2
330
137
100
AcDbEntity
  8
0
 62
     0
100
AcDbLine
 10
31.33659150140193
 20
21.52499185783807
 30
0.0
 11
45.33739150140194
 21
21.52499185783807
 31
0.0
  0
LINE
  5
1A3
330
137
100
AcDbEntity
  8
0
 62
     0
100
AcDbLine
 10
55.15059150140194
 20
7.52546185783807
 30
0.0
 11
55.15059150140194
 21
21.52499185783807
 31
0.0
  0
LINE
  5
1A4
330
137
100
AcDbEntity
  8
0
 62
     0
100
AcDbLine
 10
69.14989150140193
 20
21.52499185783807
 30
0.0
 11
69.14989150140193
 21
7.52546185783807
 31
0.0
  0
LINE
  5
1A5
330
137
100
AcDbEntity
  8
0
 62
     0
100
AcDbLine
 10
69.14989150140193
 20
7.52546185783807
 30
0.0
 11
55.15059150140194
 21
7.52546185783807
 31
0.0
  0
LINE
  5
1A6
330
137
100
AcDbEntity
  8
0
 62
     0
100
AcDbLine
 10
55.15059150140194
 20
21.52499185783807
 30
0.0
 11
69.14989150140193
 21
21.52499185783807
 31
0.0
  0
LINE
  5
1A7
330
137
100
AcDbEntity
  8
0
 62
     0
100
AcDbLine
 10
92.96239150140193
 20
7.52546185783807
 30
0.0
 11
78.96309150140194
 21
7.52546185783807
 31
0.0
  0
LINE
  5
1A8
330
137
100
AcDbEntity
  8
0
 62
     0
100
AcDbLine
 10
78.96309150140194
 20
21.52499185783807
 30
0.0
 11
92.96239150140193
 21
21.52499185783807
 31
0.0
  0
LINE
  5
1A9
330
137
100
AcDbEntity
  8
0
 62
     0
100
AcDbLine
 10
78.96309150140194
 20
7.52546185783807
 30
0.0
 11
78.96309150140194
 21
21.52499185783807
 31
0.0
  0
LINE
  5
1AA
330
137
100
AcDbEntity
  8
0
 62
     0
100
AcDbLine
 10
102.7752915014019
 20
7.52546185783807
 30
0.0
 11
102.7752915014019
 21
21.52499185783807
 31
0.0
  0
LINE
  5
1AB
330
137
100
AcDbEntity
  8
0
 62
     0
100
AcDbLine
 10
92.96239150140193
 20
21.52499185783807
 30
0.0
 11
92.96239150140193
 21
7.52546185783807
 31
0.0
  0
LINE
  5
1AC
330
137
100
AcDbEntity
  8
0
 62
     0
100
AcDbLine
 10
116.7752915014019
 20
21.52499185783807
 30
0.0
 11
116.7752915014019
 21
7.52546185783807
 31
0.0
  0
LINE
  5
1AD
330
137
100
AcDbEntity
  8
0
 62
     0
100
AcDbLine
 10
121.3362915014019
 20
3.92741185783807
 30
0.0
 11
121.8002915014019
 21
4.000441857838071
 31
0.0
  0
LINE
  5
1AE
330
137
100
AcDbEntity
  8
0
 62
     0
100
AcDbLine
 10
120.9182915014019
 20
3.71380185783807
 30
0.0
 11
121.3362915014019
 21
3.92741185783807
 31
0.0
  0
LINE
  5
1AF
330
137
100
AcDbEntity
  8
0
 62
     0
100
AcDbLine
 10
120.5862915014019
 20
3.38171185783807
 30
0.0
 11
120.9182915014019
 21
3.71380185783807
 31
0.0
  0
LINE
  5
1B0
330
137
100
AcDbEntity
  8
0
 62
     0
100
AcDbLine
 10
120.3732915014019
 20
2.964161857838071
 30
0.0
 11
120.5862915014019
 21
3.38171185783807
 31
0.0
  0
LINE
  5
1B1
330
137
100
AcDbEntity
  8
0
 62
     0
100
AcDbLine
 10
120.3002915014019
 20
2.49976185783807
 30
0.0
 11
120.3732915014019
 21
2.964161857838071
 31
0.0
  0
LINE
  5
1B2
330
137
100
AcDbEntity
  8
0
 62
     0
100
AcDbLine
 10
120.3732915014019
 20
2.03674185783807
 30
0.0
 11
120.3002915014019
 21
2.49976185783807
 31
0.0
  0
LINE
  5
1B3
330
137
100
AcDbEntity
  8
0
 62
     0
100
AcDbLine
 10
120.5862915014019
 20
1.61782185783807
 30
0.0
 11
120.3732915014019
 21
2.03674185783807
 31
0.0
  0
LINE
  5
1B4
330
137
100
AcDbEntity
  8
0
 62
     0
100
AcDbLine
 10
120.9182915014019
 20
1.28571185783807
 30
0.0
 11
120.5862915014019
 21
1.61782185783807
 31
0.0
  0
LINE
  5
1B5
330
137
100
AcDbEntity
  8
0
 62
     0
100
AcDbLine
 10
121.3362915014019
 20
1.07349185783807
 30
0.0
 11
120.9182915014019
 21
1.28571185783807
 31
0.0
  0
LINE
  5
1B6
330
137
100
AcDbEntity
  8
0
 62
     0
100
AcDbLine
 10
121.8002915014019
 20
1.00046185783807
 30
0.0
 11
121.3362915014019
 21
1.07349185783807
 31
0.0
  0
LINE
  5
1B7
330
137
100
AcDbEntity
  8
0
 62
     0
100
AcDbLine
 10
122.2632915014019
 20
1.07349185783807
 30
0.0
 11
121.8002915014019
 21
1.00046185783807
 31
0.0
  0
LINE
  5
1B8
330
137
100
AcDbEntity
  8
0
 62
     0
100
AcDbLine
 10
122.6822915014019
 20
1.28571185783807
 30
0.0
 11
122.2632915014019
 21
1.07349185783807
 31
0.0
  0
LINE
  5
1B9
330
137
100
AcDbEntity
  8
0
 62
     0
100
AcDbLine
 10
123.0152915014019
 20
1.61782185783807
 30
0.0
 11
122.6822915014019
 21
1.28571185783807
 31
0.0
  0
LINE
  5
1BA
330
137
100
AcDbEntity
  8
0
 62
     0
100
AcDbLine
 10
123.2272915014019
 20
2.03674185783807
 30
0.0
 11
123.0152915014019
 21
1.61782185783807
 31
0.0
  0
LINE
  5
1BB
330
137
100
AcDbEntity
  8
0
 62
     0
100
AcDbLine
 10
123.3002915014019
 20
2.49976185783807
 30
0.0
 11
123.2272915014019
 21
2.03674185783807
 31
0.0
  0
LINE
  5
1BC
330
137
100
AcDbEntity
  8
0
 62
     0
100
AcDbLine
 10
123.2272915014019
 20
2.964161857838071
 30
0.0
 11
123.3002915014019
 21
2.49976185783807
 31
0.0
  0
LINE
  5
1BD
330
137
100
AcDbEntity
  8
0
 62
     0
100
AcDbLine
 10
123.0152915014019
 20
3.38171185783807
 30
0.0
 11
123.2272915014019
 21
2.964161857838071
 31
0.0
  0
LINE
  5
1BE
330
137
100
AcDbEntity
  8
0
 62
     0
100
AcDbLine
 10
122.6822915014019
 20
3.71380185783807
 30
0.0
 11
123.0152915014019
 21
3.38171185783807
 31
0.0
  0
LINE
  5
1BF
330
137
100
AcDbEntity
  8
0
 62
     0
100
AcDbLine
 10
122.2632915014019
 20
3.92741185783807
 30
0.0
 11
122.6822915014019
 21
3.71380185783807
 31
0.0
  0
LINE
  5
1C0
330
137
100
AcDbEntity
  8
0
 62
     0
100
AcDbLine
 10
121.8002915014019
 20
4.000441857838071
 30
0.0
 11
122.2632915014019
 21
3.92741185783807
 31
0.0
  0
LINE
  5
1C1
330
137
100
AcDbEntity
  8
0
 62
     0
100
AcDbLine
 10
121.5342915014019
 20
0.0096468578380708
 30
0.0
 11
121.3002915014019
 21
0.0000008578380708
 31
0.0
  0
LINE
  5
1C2
330
137
100
AcDbEntity
  8
0
 62
     0
100
AcDbLine
 10
121.7692915014019
 20
0.0372078578380708
 30
0.0
 11
121.5342915014019
 21
0.0096468578380708
 31
0.0
  0
LINE
  5
1C3
330
137
100
AcDbEntity
  8
0
 62
     0
100
AcDbLine
 10
122.0002915014019
 20
0.0840608578380708
 30
0.0
 11
121.7692915014019
 21
0.0372078578380708
 31
0.0
  0
LINE
  5
1C4
330
137
100
AcDbEntity
  8
0
 62
     0
100
AcDbLine
 10
122.2262915014019
 20
0.1474508578380708
 30
0.0
 11
122.0002915014019
 21
0.0840608578380708
 31
0.0
  0
LINE
  5
1C5
330
137
100
AcDbEntity
  8
0
 62
     0
100
AcDbLine
 10
122.4482915014019
 20
0.2287548578380708
 30
0.0
 11
122.2262915014019
 21
0.1474508578380708
 31
0.0
  0
LINE
  5
1C6
330
137
100
AcDbEntity
  8
0
 62
     0
100
AcDbLine
 10
122.6622915014019
 20
0.3279738578380708
 30
0.0
 11
122.4482915014019
 21
0.2287548578380708
 31
0.0
  0
LINE
  5
1C7
330
137
100
AcDbEntity
  8
0
 62
     0
100
AcDbLine
 10
122.8672915014019
 20
0.4423518578380709
 30
0.0
 11
122.6622915014019
 21
0.3279738578380708
 31
0.0
  0
LINE
  5
1C8
330
137
100
AcDbEntity
  8
0
 62
     0
100
AcDbLine
 10
123.0622915014019
 20
0.5732638578380708
 30
0.0
 11
122.8672915014019
 21
0.4423518578380709
 31
0.0
  0
LINE
  5
1C9
330
137
100
AcDbEntity
  8
0
 62
     0
100
AcDbLine
 10
123.2472915014019
 20
0.7193358578380709
 30
0.0
 11
123.0622915014019
 21
0.5732638578380708
 31
0.0
  0
LINE
  5
1CA
330
137
100
AcDbEntity
  8
0
 62
     0
100
AcDbLine
 10
123.4212915014019
 20
0.8791898578380708
 30
0.0
 11
123.2472915014019
 21
0.7193358578380709
 31
0.0
  0
LINE
  5
1CB
330
137
100
AcDbEntity
  8
0
 62
     0
100
AcDbLine
 10
123.5812915014019
 20
1.05282185783807
 30
0.0
 11
123.4212915014019
 21
0.8791898578380708
 31
0.0
  0
LINE
  5
1CC
330
137
100
AcDbEntity
  8
0
 62
     0
100
AcDbLine
 10
123.7272915014019
 20
1.23748185783807
 30
0.0
 11
123.5812915014019
 21
1.05282185783807
 31
0.0
  0
LINE
  5
1CD
330
137
100
AcDbEntity
  8
0
 62
     0
100
AcDbLine
 10
123.8582915014019
 20
1.43316185783807
 30
0.0
 11
123.7272915014019
 21
1.23748185783807
 31
0.0
  0
LINE
  5
1CE
330
137
100
AcDbEntity
  8
0
 62
     0
100
AcDbLine
 10
123.9722915014019
 20
1.63849185783807
 30
0.0
 11
123.8582915014019
 21
1.43316185783807
 31
0.0
  0
LINE
  5
1CF
330
137
100
AcDbEntity
  8
0
 62
     0
100
AcDbLine
 10
124.0712915014019
 20
1.85208185783807
 30
0.0
 11
123.9722915014019
 21
1.63849185783807
 31
0.0
  0
LINE
  5
1D0
330
137
100
AcDbEntity
  8
0
 62
     0
100
AcDbLine
 10
124.1532915014019
 20
2.07395185783807
 30
0.0
 11
124.0712915014019
 21
1.85208185783807
 31
0.0
  0
LINE
  5
1D1
330
137
100
AcDbEntity
  8
0
 62
     0
100
AcDbLine
 10
124.2162915014019
 20
2.29994185783807
 30
0.0
 11
124.1532915014019
 21
2.07395185783807
 31
0.0
  0
LINE
  5
1D2
330
137
100
AcDbEntity
  8
0
 62
     0
100
AcDbLine
 10
124.2632915014019
 20
2.53145185783807
 30
0.0
 11
124.2162915014019
 21
2.29994185783807
 31
0.0
  0
LINE
  5
1D3
330
137
100
AcDbEntity
  8
0
 62
     0
100
AcDbLine
 10
124.2912915014019
 20
2.76572185783807
 30
0.0
 11
124.2632915014019
 21
2.53145185783807
 31
0.0
  0
LINE
  5
1D4
330
137
100
AcDbEntity
  8
0
 62
     0
100
AcDbLine
 10
124.3002915014019
 20
2.99999185783807
 30
0.0
 11
124.2912915014019
 21
2.76572185783807
 31
0.0
  0
LINE
  5
1D5
330
137
100
AcDbEntity
  8
0
 62
     0
100
AcDbLine
 10
116.7752915014019
 20
31.33799185783807
 30
0.0
 11
102.7752915014019
 21
31.33799185783807
 31
0.0
  0
LINE
  5
1D6
330
137
100
AcDbEntity
  8
0
 62
     0
100
AcDbLine
 10
102.7752915014019
 20
45.33729185783807
 30
0.0
 11
116.7752915014019
 21
45.33729185783807
 31
0.0
  0
LINE
  5
1D7
330
137
100
AcDbEntity
  8
0
 62
     0
100
AcDbLine
 10
116.7752915014019
 20
55.15049185783807
 30
0.0
 11
102.7752915014019
 21
55.15049185783807
 31
0.0
  0
LINE
  5
1D8
330
137
100
AcDbEntity
  8
0
 62
     0
100
AcDbLine
 10
102.7752915014019
 20
69.14979185783806
 30
0.0
 11
116.7752915014019
 21
69.14979185783806
 31
0.0
  0
LINE
  5
1D9
330
137
100
AcDbEntity
  8
0
 62
     0
100
AcDbLine
 10
116.7752915014019
 20
78.96299185783807
 30
0.0
 11
102.7752915014019
 21
78.96299185783807
 31
0.0
  0
LINE
  5
1DA
330
137
100
AcDbEntity
  8
0
 62
     0
100
AcDbLine
 10
102.7752915014019
 20
92.96369185783808
 30
0.0
 11
116.7752915014019
 21
92.96369185783808
 31
0.0
  0
LINE
  5
1DB
330
137
100
AcDbEntity
  8
0
 62
     0
100
AcDbLine
 10
116.7752915014019
 20
102.775891857838
 30
0.0
 11
102.7752915014019
 21
102.775891857838
 31
0.0
  0
LINE
  5
1DC
330
137
100
AcDbEntity
  8
0
 62
     0
100
AcDbLine
 10
102.7752915014019
 20
116.774891857838
 30
0.0
 11
116.7752915014019
 21
116.774891857838
 31
0.0
  0
LINE
  5
1DD
330
137
100
AcDbEntity
  8
0
 62
     0
100
AcDbLine
 10
102.7752915014019
 20
102.775891857838
 30
0.0
 11
102.7752915014019
 21
116.774891857838
 31
0.0
  0
LINE
  5
1DE
330
137
100
AcDbEntity
  8
0
 62
     0
100
AcDbLine
 10
78.96309150140194
 20
102.775891857838
 30
0.0
 11
78.96309150140194
 21
116.774891857838
 31
0.0
  0
LINE
  5
1DF
330
137
100
AcDbEntity
  8
0
 62
     0
100
AcDbLine
 10
92.96239150140193
 20
116.774891857838
 30
0.0
 11
92.96239150140193
 21
102.775891857838
 31
0.0
  0
LINE
  5
1E0
330
137
100
AcDbEntity
  8
0
 62
     0
100
AcDbLine
 10
55.15059150140194
 20
102.775891857838
 30
0.0
 11
55.15059150140194
 21
116.774891857838
 31
0.0
  0
LINE
  5
1E1
330
137
100
AcDbEntity
  8
0
 62
     0
100
AcDbLine
 10
69.14989150140193
 20
116.774891857838
 30
0.0
 11
69.14989150140193
 21
102.775891857838
 31
0.0
  0
LINE
  5
1E2
330
137
100
AcDbEntity
  8
0
 62
     0
100
AcDbLine
 10
31.33659150140193
 20
102.775891857838
 30
0.0
 11
31.33659150140193
 21
116.774891857838
 31
0.0
  0
LINE
  5
1E3
330
137
100
AcDbEntity
  8
0
 62
     0
100
AcDbLine
 10
45.33739150140194
 20
116.774891857838
 30
0.0
 11
45.33739150140194
 21
102.775891857838
 31
0.0
  0
LINE
  5
1E4
330
137
100
AcDbEntity
  8
0
 62
     0
100
AcDbLine
 10
45.33739150140194
 20
31.33799185783807
 30
0.0
 11
31.33659150140193
 21
31.33799185783807
 31
0.0
  0
LINE
  5
1E5
330
137
100
AcDbEntity
  8
0
 62
     0
100
AcDbLine
 10
31.33659150140193
 20
45.33729185783807
 30
0.0
 11
45.33739150140194
 21
45.33729185783807
 31
0.0
  0
LINE
  5
1E6
330
137
100
AcDbEntity
  8
0
 62
     0
100
AcDbLine
 10
31.33659150140193
 20
31.33799185783807
 30
0.0
 11
31.33659150140193
 21
45.33729185783807
 31
0.0
  0
LINE
  5
1E7
330
137
100
AcDbEntity
  8
0
 62
     0
100
AcDbLine
 10
45.33739150140194
 20
45.33729185783807
 30
0.0
 11
45.33739150140194
 21
31.33799185783807
 31
0.0
  0
LINE
  5
1E8
330
137
100
AcDbEntity
  8
0
 62
     0
100
AcDbLine
 10
45.33739150140194
 20
55.15049185783807
 30
0.0
 11
31.33659150140193
 21
55.15049185783807
 31
0.0
  0
LINE
  5
1E9
330
137
100
AcDbEntity
  8
0
 62
     0
100
AcDbLine
 10
31.33659150140193
 20
69.14979185783806
 30
0.0
 11
45.33739150140194
 21
69.14979185783806
 31
0.0
  0
LINE
  5
1EA
330
137
100
AcDbEntity
  8
0
 62
     0
100
AcDbLine
 10
31.33659150140193
 20
55.15049185783807
 30
0.0
 11
31.33659150140193
 21
69.14979185783806
 31
0.0
  0
LINE
  5
1EB
330
137
100
AcDbEntity
  8
0
 62
     0
100
AcDbLine
 10
45.33739150140194
 20
69.14979185783806
 30
0.0
 11
45.33739150140194
 21
55.15049185783807
 31
0.0
  0
LINE
  5
1EC
330
137
100
AcDbEntity
  8
0
 62
     0
100
AcDbLine
 10
69.14989150140193
 20
31.33799185783807
 30
0.0
 11
55.15059150140194
 21
31.33799185783807
 31
0.0
  0
LINE
  5
1ED
330
137
100
AcDbEntity
  8
0
 62
     0
100
AcDbLine
 10
55.15059150140194
 20
45.33729185783807
 30
0.0
 11
69.14989150140193
 21
45.33729185783807
 31
0.0
  0
LINE
  5
1EE
330
137
100
AcDbEntity
  8
0
 62
     0
100
AcDbLine
 10
55.15059150140194
 20
31.33799185783807
 30
0.0
 11
55.15059150140194
 21
45.33729185783807
 31
0.0
  0
LINE
  5
1EF
330
137
100
AcDbEntity
  8
0
 62
     0
100
AcDbLine
 10
69.14989150140193
 20
45.33729185783807
 30
0.0
 11
69.14989150140193
 21
31.33799185783807
 31
0.0
  0
LINE
  5
1F0
330
137
100
AcDbEntity
  8
0
 62
     0
100
AcDbLine
 10
69.14989150140193
 20
55.15049185783807
 30
0.0
 11
55.15059150140194
 21
55.15049185783807
 31
0.0
  0
LINE
  5
1F1
330
137
100
AcDbEntity
  8
0
 62
     0
100
AcDbLine
 10
55.15059150140194
 20
69.14979185783806
 30
0.0
 11
69.14989150140193
 21
69.14979185783806
 31
0.0
  0
LINE
  5
1F2
330
137
100
AcDbEntity
  8
0
 62
     0
100
AcDbLine
 10
55.15059150140194
 20
55.15049185783807
 30
0.0
 11
55.15059150140194
 21
69.14979185783806
 31
0.0
  0
LINE
  5
1F3
330
137
100
AcDbEntity
  8
0
 62
     0
100
AcDbLine
 10
69.14989150140193
 20
69.14979185783806
 30
0.0
 11
69.14989150140193
 21
55.15049185783807
 31
0.0
  0
LINE
  5
1F4
330
137
100
AcDbEntity
  8
0
 62
     0
100
AcDbLine
 10
31.33659150140193
 20
78.96299185783807
 30
0.0
 11
31.33659150140193
 21
92.96369185783808
 31
0.0
  0
LINE
  5
1F5
330
137
100
AcDbEntity
  8
0
 62
     0
100
AcDbLine
 10
45.33739150140194
 20
92.96369185783808
 30
0.0
 11
45.33739150140194
 21
78.96299185783807
 31
0.0
  0
LINE
  5
1F6
330
137
100
AcDbEntity
  8
0
 62
     0
100
AcDbLine
 10
45.33739150140194
 20
78.96299185783807
 30
0.0
 11
31.33659150140193
 21
78.96299185783807
 31
0.0
  0
LINE
  5
1F7
330
137
100
AcDbEntity
  8
0
 62
     0
100
AcDbLine
 10
31.33659150140193
 20
92.96369185783808
 30
0.0
 11
45.33739150140194
 21
92.96369185783808
 31
0.0
  0
LINE
  5
1F8
330
137
100
AcDbEntity
  8
0
 62
     0
100
AcDbLine
 10
45.33739150140194
 20
102.775891857838
 30
0.0
 11
31.33659150140193
 21
102.775891857838
 31
0.0
  0
LINE
  5
1F9
330
137
100
AcDbEntity
  8
0
 62
     0
100
AcDbLine
 10
55.15059150140194
 20
78.96299185783807
 30
0.0
 11
55.15059150140194
 21
92.96369185783808
 31
0.0
  0
LINE
  5
1FA
330
137
100
AcDbEntity
  8
0
 62
     0
100
AcDbLine
 10
69.14989150140193
 20
92.96369185783808
 30
0.0
 11
69.14989150140193
 21
78.96299185783807
 31
0.0
  0
LINE
  5
1FB
330
137
100
AcDbEntity
  8
0
 62
     0
100
AcDbLine
 10
69.14989150140193
 20
78.96299185783807
 30
0.0
 11
55.15059150140194
 21
78.96299185783807
 31
0.0
  0
LINE
  5
1FC
330
137
100
AcDbEntity
  8
0
 62
     0
100
AcDbLine
 10
55.15059150140194
 20
92.96369185783808
 30
0.0
 11
69.14989150140193
 21
92.96369185783808
 31
0.0
  0
LINE
  5
1FD
330
137
100
AcDbEntity
  8
0
 62
     0
100
AcDbLine
 10
69.14989150140193
 20
102.775891857838
 30
0.0
 11
55.15059150140194
 21
102.775891857838
 31
0.0
  0
LINE
  5
1FE
330
137
100
AcDbEntity
  8
0
 62
     0
100
AcDbLine
 10
92.96239150140193
 20
31.33799185783807
 30
0.0
 11
78.96309150140194
 21
31.33799185783807
 31
0.0
  0
LINE
  5
1FF
330
137
100
AcDbEntity
  8
0
 62
     0
100
AcDbLine
 10
78.96309150140194
 20
45.33729185783807
 30
0.0
 11
92.96239150140193
 21
45.33729185783807
 31
0.0
  0
LINE
  5
200
330
137
100
AcDbEntity
  8
0
 62
     0
100
AcDbLine
 10
92.96239150140193
 20
55.15049185783807
 30
0.0
 11
78.96309150140194
 21
55.15049185783807
 31
0.0
  0
LINE
  5
201
330
137
100
AcDbEntity
  8
0
 62
     0
100
AcDbLine
 10
78.96309150140194
 20
69.14979185783806
 30
0.0
 11
92.96239150140193
 21
69.14979185783806
 31
0.0
  0
LINE
  5
202
330
137
100
AcDbEntity
  8
0
 62
     0
100
AcDbLine
 10
78.96309150140194
 20
31.33799185783807
 30
0.0
 11
78.96309150140194
 21
45.33729185783807
 31
0.0
  0
LINE
  5
203
330
137
100
AcDbEntity
  8
0
 62
     0
100
AcDbLine
 10
78.96309150140194
 20
55.15049185783807
 30
0.0
 11
78.96309150140194
 21
69.14979185783806
 31
0.0
  0
LINE
  5
204
330
137
100
AcDbEntity
  8
0
 62
     0
100
AcDbLine
 10
92.96239150140193
 20
45.33729185783807
 30
0.0
 11
92.96239150140193
 21
31.33799185783807
 31
0.0
  0
LINE
  5
205
330
137
100
AcDbEntity
  8
0
 62
     0
100
AcDbLine
 10
102.7752915014019
 20
31.33799185783807
 30
0.0
 11
102.7752915014019
 21
45.33729185783807
 31
0.0
  0
LINE
  5
206
330
137
100
AcDbEntity
  8
0
 62
     0
100
AcDbLine
 10
92.96239150140193
 20
69.14979185783806
 30
0.0
 11
92.96239150140193
 21
55.15049185783807
 31
0.0
  0
LINE
  5
207
330
137
100
AcDbEntity
  8
0
 62
     0
100
AcDbLine
 10
102.7752915014019
 20
55.15049185783807
 30
0.0
 11
102.7752915014019
 21
69.14979185783806
 31
0.0
  0
LINE
  5
208
330
137
100
AcDbEntity
  8
0
 62
     0
100
AcDbLine
 10
92.96239150140193
 20
78.96299185783807
 30
0.0
 11
78.96309150140194
 21
78.96299185783807
 31
0.0
  0
LINE
  5
209
330
137
100
AcDbEntity
  8
0
 62
     0
100
AcDbLine
 10
78.96309150140194
 20
92.96369185783808
 30
0.0
 11
92.96239150140193
 21
92.96369185783808
 31
0.0
  0
LINE
  5
20A
330
137
100
AcDbEntity
  8
0
 62
     0
100
AcDbLine
 10
92.96239150140193
 20
102.775891857838
 30
0.0
 11
78.96309150140194
 21
102.775891857838
 31
0.0
  0
LINE
  5
20B
330
137
100
AcDbEntity
  8
0
 62
     0
100
AcDbLine
 10
78.96309150140194
 20
78.96299185783807
 30
0.0
 11
78.96309150140194
 21
92.96369185783808
 31
0.0
  0
LINE
  5
20C
330
137
100
AcDbEntity
  8
0
 62
     0
100
AcDbLine
 10
102.7752915014019
 20
78.96299185783807
 30
0.0
 11
102.7752915014019
 21
92.96369185783808
 31
0.0
  0
LINE
  5
20D
330
137
100
AcDbEntity
  8
0
 62
     0
100
AcDbLine
 10
92.96239150140193
 20
92.96369185783808
 30
0.0
 11
92.96239150140193
 21
78.96299185783807
 31
0.0
  0
LINE
  5
20E
330
137
100
AcDbEntity
  8
0
 62
     0
100
AcDbLine
 10
31.33659150140193
 20
116.774891857838
 30
0.0
 11
45.33739150140194
 21
116.774891857838
 31
0.0
  0
LINE
  5
20F
330
137
100
AcDbEntity
  8
0
 62
     0
100
AcDbLine
 10
55.15059150140194
 20
116.774891857838
 30
0.0
 11
69.14989150140193
 21
116.774891857838
 31
0.0
  0
LINE
  5
210
330
137
100
AcDbEntity
  8
0
 62
     0
100
AcDbLine
 10
78.96309150140194
 20
116.774891857838
 30
0.0
 11
92.96239150140193
 21
116.774891857838
 31
0.0
  0
LINE
  5
211
330
137
100
AcDbEntity
  8
0
 62
     0
100
AcDbLine
 10
116.7752915014019
 20
116.774891857838
 30
0.0
 11
116.7752915014019
 21
102.775891857838
 31
0.0
  0
LINE
  5
212
330
137
100
AcDbEntity
  8
0
 62
     0
100
AcDbLine
 10
116.7752915014019
 20
45.33729185783807
 30
0.0
 11
116.7752915014019
 21
31.33799185783807
 31
0.0
  0
LINE
  5
213
330
137
100
AcDbEntity
  8
0
 62
     0
100
AcDbLine
 10
116.7752915014019
 20
69.14979185783806
 30
0.0
 11
116.7752915014019
 21
55.15049185783807
 31
0.0
  0
LINE
  5
214
330
137
100
AcDbEntity
  8
0
 62
     0
100
AcDbLine
 10
116.7752915014019
 20
92.96369185783808
 30
0.0
 11
116.7752915014019
 21
78.96299185783807
 31
0.0
  0
LINE
  5
215
330
137
100
AcDbEntity
  8
0
 62
     0
100
AcDbLine
 10
121.3362915014019
 20
123.226891857838
 30
0.0
 11
121.8002915014019
 21
123.299891857838
 31
0.0
  0
LINE
  5
216
330
137
100
AcDbEntity
  8
0
 62
     0
100
AcDbLine
 10
120.9182915014019
 20
123.014891857838
 30
0.0
 11
121.3362915014019
 21
123.226891857838
 31
0.0
  0
LINE
  5
217
330
137
100
AcDbEntity
  8
0
 62
     0
100
AcDbLine
 10
120.5862915014019
 20
122.682891857838
 30
0.0
 11
120.9182915014019
 21
123.014891857838
 31
0.0
  0
LINE
  5
218
330
137
100
AcDbEntity
  8
0
 62
     0
100
AcDbLine
 10
120.3732915014019
 20
122.264891857838
 30
0.0
 11
120.5862915014019
 21
122.682891857838
 31
0.0
  0
LINE
  5
219
330
137
100
AcDbEntity
  8
0
 62
     0
100
AcDbLine
 10
120.3002915014019
 20
121.800891857838
 30
0.0
 11
120.3732915014019
 21
122.264891857838
 31
0.0
  0
LINE
  5
21A
330
137
100
AcDbEntity
  8
0
 62
     0
100
AcDbLine
 10
120.3732915014019
 20
121.335891857838
 30
0.0
 11
120.3002915014019
 21
121.800891857838
 31
0.0
  0
LINE
  5
21B
330
137
100
AcDbEntity
  8
0
 62
     0
100
AcDbLine
 10
120.5862915014019
 20
120.918891857838
 30
0.0
 11
120.3732915014019
 21
121.335891857838
 31
0.0
  0
LINE
  5
21C
330
137
100
AcDbEntity
  8
0
 62
     0
100
AcDbLine
 10
120.9182915014019
 20
120.586891857838
 30
0.0
 11
120.5862915014019
 21
120.918891857838
 31
0.0
  0
LINE
  5
21D
330
137
100
AcDbEntity
  8
0
 62
     0
100
AcDbLine
 10
121.3362915014019
 20
120.372891857838
 30
0.0
 11
120.9182915014019
 21
120.586891857838
 31
0.0
  0
LINE
  5
21E
330
137
100
AcDbEntity
  8
0
 62
     0
100
AcDbLine
 10
121.8002915014019
 20
120.299891857838
 30
0.0
 11
121.3362915014019
 21
120.372891857838
 31
0.0
  0
LINE
  5
21F
330
137
100
AcDbEntity
  8
0
 62
     0
100
AcDbLine
 10
122.2632915014019
 20
120.372891857838
 30
0.0
 11
121.8002915014019
 21
120.299891857838
 31
0.0
  0
LINE
  5
220
330
137
100
AcDbEntity
  8
0
 62
     0
100
AcDbLine
 10
122.6822915014019
 20
120.586891857838
 30
0.0
 11
122.2632915014019
 21
120.372891857838
 31
0.0
  0
LINE
  5
221
330
137
100
AcDbEntity
  8
0
 62
     0
100
AcDbLine
 10
123.0152915014019
 20
120.918891857838
 30
0.0
 11
122.6822915014019
 21
120.586891857838
 31
0.0
  0
LINE
  5
222
330
137
100
AcDbEntity
  8
0
 62
     0
100
AcDbLine
 10
123.2272915014019
 20
121.335891857838
 30
0.0
 11
123.0152915014019
 21
120.918891857838
 31
0.0
  0
LINE
  5
223
330
137
100
AcDbEntity
  8
0
 62
     0
100
AcDbLine
 10
123.3002915014019
 20
121.800891857838
 30
0.0
 11
123.2272915014019
 21
121.335891857838
 31
0.0
  0
LINE
  5
224
330
137
100
AcDbEntity
  8
0
 62
     0
100
AcDbLine
 10
123.2272915014019
 20
122.264891857838
 30
0.0
 11
123.3002915014019
 21
121.800891857838
 31
0.0
  0
LINE
  5
225
330
137
100
AcDbEntity
  8
0
 62
     0
100
AcDbLine
 10
123.0152915014019
 20
122.682891857838
 30
0.0
 11
123.2272915014019
 21
122.264891857838
 31
0.0
  0
LINE
  5
226
330
137
100
AcDbEntity
  8
0
 62
     0
100
AcDbLine
 10
122.6822915014019
 20
123.014891857838
 30
0.0
 11
123.0152915014019
 21
122.682891857838
 31
0.0
  0
LINE
  5
227
330
137
100
AcDbEntity
  8
0
 62
     0
100
AcDbLine
 10
122.2632915014019
 20
123.226891857838
 30
0.0
 11
122.6822915014019
 21
123.014891857838
 31
0.0
  0
LINE
  5
228
330
137
100
AcDbEntity
  8
0
 62
     0
100
AcDbLine
 10
121.8002915014019
 20
123.299891857838
 30
0.0
 11
122.2632915014019
 21
123.226891857838
 31
0.0
  0
LINE
  5
229
330
137
100
AcDbEntity
  8
0
 62
     0
100
AcDbLine
 10
124.2912915014019
 20
121.534891857838
 30
0.0
 11
124.3002915014019
 21
121.300891857838
 31
0.0
  0
LINE
  5
22A
330
137
100
AcDbEntity
  8
0
 62
     0
100
AcDbLine
 10
124.2632915014019
 20
121.768891857838
 30
0.0
 11
124.2912915014019
 21
121.534891857838
 31
0.0
  0
LINE
  5
22B
330
137
100
AcDbEntity
  8
0
 62
     0
100
AcDbLine
 10
124.2162915014019
 20
122.000891857838
 30
0.0
 11
124.2632915014019
 21
121.768891857838
 31
0.0
  0
LINE
  5
22C
330
137
100
AcDbEntity
  8
0
 62
     0
100
AcDbLine
 10
124.1532915014019
 20
122.227891857838
 30
0.0
 11
124.2162915014019
 21
122.000891857838
 31
0.0
  0
LINE
  5
22D
330
137
100
AcDbEntity
  8
0
 62
     0
100
AcDbLine
 10
124.0712915014019
 20
122.447891857838
 30
0.0
 11
124.1532915014019
 21
122.227891857838
 31
0.0
  0
LINE
  5
22E
330
137
100
AcDbEntity
  8
0
 62
     0
100
AcDbLine
 10
123.9722915014019
 20
122.661891857838
 30
0.0
 11
124.0712915014019
 21
122.447891857838
 31
0.0
  0
LINE
  5
22F
330
137
100
AcDbEntity
  8
0
 62
     0
100
AcDbLine
 10
123.8582915014019
 20
122.866891857838
 30
0.0
 11
123.9722915014019
 21
122.661891857838
 31
0.0
  0
LINE
  5
230
330
137
100
AcDbEntity
  8
0
 62
     0
100
AcDbLine
 10
123.7272915014019
 20
123.062891857838
 30
0.0
 11
123.8582915014019
 21
122.866891857838
 31
0.0
  0
LINE
  5
231
330
137
100
AcDbEntity
  8
0
 62
     0
100
AcDbLine
 10
123.5812915014019
 20
123.248891857838
 30
0.0
 11
123.7272915014019
 21
123.062891857838
 31
0.0
  0
LINE
  5
232
330
137
100
AcDbEntity
  8
0
 62
     0
100
AcDbLine
 10
123.4212915014019
 20
123.420891857838
 30
0.0
 11
123.5812915014019
 21
123.248891857838
 31
0.0
  0
LINE
  5
233
330
137
100
AcDbEntity
  8
0
 62
     0
100
AcDbLine
 10
123.2472915014019
 20
123.580891857838
 30
0.0
 11
123.4212915014019
 21
123.420891857838
 31
0.0
  0
LINE
  5
234
330
137
100
AcDbEntity
  8
0
 62
     0
100
AcDbLine
 10
123.0622915014019
 20
123.726891857838
 30
0.0
 11
123.2472915014019
 21
123.580891857838
 31
0.0
  0
LINE
  5
235
330
137
100
AcDbEntity
  8
0
 62
     0
100
AcDbLine
 10
122.8672915014019
 20
123.857891857838
 30
0.0
 11
123.0622915014019
 21
123.726891857838
 31
0.0
  0
LINE
  5
236
330
137
100
AcDbEntity
  8
0
 62
     0
100
AcDbLine
 10
122.6622915014019
 20
123.973891857838
 30
0.0
 11
122.8672915014019
 21
123.857891857838
 31
0.0
  0
LINE
  5
237
330
137
100
AcDbEntity
  8
0
 62
     0
100
AcDbLine
 10
122.4482915014019
 20
124.072891857838
 30
0.0
 11
122.6622915014019
 21
123.973891857838
 31
0.0
  0
LINE
  5
238
330
137
100
AcDbEntity
  8
0
 62
     0
100
AcDbLine
 10
122.2262915014019
 20
124.152891857838
 30
0.0
 11
122.4482915014019
 21
124.072891857838
 31
0.0
  0
LINE
  5
239
330
137
100
AcDbEntity
  8
0
 62
     0
100
AcDbLine
 10
122.0002915014019
 20
124.217891857838
 30
0.0
 11
122.2262915014019
 21
124.152891857838
 31
0.0
  0
LINE
  5
23A
330
137
100
AcDbEntity
  8
0
 62
     0
100
AcDbLine
 10
121.7692915014019
 20
124.262891857838
 30
0.0
 11
122.0002915014019
 21
124.217891857838
 31
0.0
  0
LINE
  5
23B
330
137
100
AcDbEntity
  8
0
 62
     0
100
AcDbLine
 10
121.5342915014019
 20
124.290891857838
 30
0.0
 11
121.7692915014019
 21
124.262891857838
 31
0.0
  0
LINE
  5
23C
330
137
100
AcDbEntity
  8
0
 62
     0
100
AcDbLine
 10
121.3002915014019
 20
124.299891857838
 30
0.0
 11
121.5342915014019
 21
124.290891857838
 31
0.0
  0
ENDBLK
  5
23E
330
137
100
AcDbEntity
  8
0
100
AcDbBlockEnd
  0
BLOCK
  5
2AB
330
2A9
100
AcDbEntity
  8
0
100
AcDbBlockBegin
  2
A$C73D55510
 70
     0
 10
0.0
 20
0.0
 30
0.0
  3
A$C73D55510
  1

  0
CIRCLE
  5
2AA
330
2A9
100
AcDbEntity
  8
0
 62
     7
100
AcDbCircle
 10
1.599999261362427
 20
1.599998132670407
 30
0.0
 40
1.6
  0
ENDBLK
  5
2AC
330
2A9
100
AcDbEntity
  8
0
100
AcDbBlockEnd
  0
ENDSEC
  0
SECTION
  2
ENTITIES
  0
LINE
  5
38
330
1E
100
AcDbEntity
  8
0
 62
     0
100
AcDbLine
 10
243.45781
 20
122.405
 30
0.0
 11
243.4578099999999
 21
2.105108999999998
 31
0.0
  0
LINE
  5
4D
330
1E
100
AcDbEntity
  8
0
 62
     0
100
AcDbLine
 10
241.4578099999999
 20
0.1051089999999988
 30
0.0
 11
2.093706599999999
 21
0.106109
 31
0.0
  0
LINE
  5
62
330
1E
100
AcDbEntity
  8
0
 62
     0
100
AcDbLine
 10
0.0937066
 20
2.106109
 30
0.0
 11
0.0937066
 21
122.406
 31
0.0
  0
LINE
  5
77
330
1E
100
AcDbEntity
  8
0
 62
     0
100
AcDbLine
 10
2.093706599999999
 20
124.406
 30
0.0
 11
241.45781
 21
124.405
 31
0.0
  0
LWPOLYLINE
  5
26F
330
1E
100
AcDbEntity
  8
0
 62
     7
100
AcDbPolyline
 90
       21
 70
     0
 43
0.0
 10
21.61918999999909
 20
102.882
 10
21.61918999999909
 20
103.482
 10
22.41919000000291
 20
103.482
 10
22.41919000000291
 20
107.3819999999999
 10
21.61918999999908
 20
107.3819999999999
 10
21.61918999999909
 20
112.382000000001
 10
22.41919000000291
 20
112.382000000001
 10
22.41919000000291
 20
116.2819999999999
 10
21.61918999999909
 20
116.2819999999999
 10
21.61918999999909
 20
116.8819999999999
 10
7.619189999999999
 20
116.8819999999999
 10
7.619189999999999
 20
116.282
 10
6.819190000000727
 20
116.282
 10
6.819190000000727
 20
112.382000000001
 10
7.619189999999998
 20
112.382000000001
 10
7.619189999999999
 20
107.3819999999999
 10
6.819190000000727
 20
107.3819999999999
 10
6.819190000000727
 20
103.482
 10
7.619189999999999
 20
103.482
 10
7.619189999999999
 20
102.882
 10
21.61869999999999
 20
102.882
  0
LWPOLYLINE
  5
274
330
1E
100
AcDbEntity
  8
0
 62
     7
100
AcDbPolyline
 90
       21
 70
     0
 43
0.0
 10
45.43029999999909
 20
102.881
 10
45.43029999999909
 20
103.481
 10
46.23030000000291
 20
103.481
 10
46.23030000000291
 20
107.3809999999999
 10
45.43029999999908
 20
107.3809999999999
 10
45.43029999999909
 20
112.381000000001
 10
46.23030000000291
 20
112.3810000000009
 10
46.23030000000291
 20
116.2809999999999
 10
45.43029999999909
 20
116.2809999999999
 10
45.43029999999909
 20
116.881
 10
31.43029999999999
 20
116.881
 10
31.43029999999999
 20
116.281
 10
30.63030000000072
 20
116.281
 10
30.63030000000072
 20
112.3810000000009
 10
31.43029999999999
 20
112.3810000000009
 10
31.43029999999999
 20
107.3809999999999
 10
30.63030000000072
 20
107.3809999999999
 10
30.63030000000072
 20
103.481
 10
31.43029999999999
 20
103.481
 10
31.43029999999999
 20
102.881
 10
45.42981
 20
102.881
  0
LWPOLYLINE
  5
275
330
1E
100
AcDbEntity
  8
0
 62
     7
100
AcDbPolyline
 90
       21
 70
     0
 43
0.0
 10
69.2442999999991
 20
102.881
 10
69.2442999999991
 20
103.481
 10
70.04430000000292
 20
103.481
 10
70.04430000000292
 20
107.3809999999999
 10
69.2442999999991
 20
107.3809999999999
 10
69.2442999999991
 20
112.381000000001
 10
70.04430000000292
 20
112.3810000000009
 10
70.04430000000292
 20
116.2809999999999
 10
69.2442999999991
 20
116.2809999999999
 10
69.2442999999991
 20
116.881
 10
55.24430000000001
 20
116.881
 10
55.24430000000001
 20
116.281
 10
54.44430000000074
 20
116.281
 10
54.44430000000074
 20
112.3810000000009
 10
55.2443
 20
112.3810000000009
 10
55.24430000000001
 20
107.3809999999999
 10
54.44430000000074
 20
107.3809999999999
 10
54.44430000000074
 20
103.481
 10
55.24430000000001
 20
103.481
 10
55.24430000000001
 20
102.881
 10
69.24381000000001
 20
102.881
  0
LWPOLYLINE
  5
276
330
1E
100
AcDbEntity
  8
0
 62
     7
100
AcDbPolyline
 90
       21
 70
     0
 43
0.0
 10
93.05679999999908
 20
102.881
 10
93.05679999999908
 20
103.481
 10
93.8568000000029
 20
103.481
 10
93.8568000000029
 20
107.3809999999999
 10
93.05679999999908
 20
107.3809999999999
 10
93.05679999999908
 20
112.381000000001
 10
93.8568000000029
 20
112.3810000000009
 10
93.8568000000029
 20
116.2809999999999
 10
93.05679999999908
 20
116.2809999999999
 10
93.05679999999908
 20
116.881
 10
79.0568
 20
116.881
 10
79.0568
 20
116.281
 10
78.25680000000073
 20
116.281
 10
78.25680000000073
 20
112.3810000000009
 10
79.0568
 20
112.3810000000009
 10
79.0568
 20
107.3809999999999
 10
78.25680000000073
 20
107.3809999999999
 10
78.25680000000073
 20
103.481
 10
79.0568
 20
103.481
 10
79.0568
 20
102.881
 10
93.05630999999999
 20
102.881
  0
LWPOLYLINE
  5
277
330
1E
100
AcDbEntity
  8
0
 62
     7
100
AcDbPolyline
 90
       21
 70
     0
 43
0.0
 10
116.868999999999
 20
102.881
 10
116.868999999999
 20
103.481
 10
117.6690000000029
 20
103.481
 10
117.6690000000029
 20
107.3809999999999
 10
116.868999999999
 20
107.3809999999999
 10
116.868999999999
 20
112.381000000001
 10
117.6690000000029
 20
112.3810000000009
 10
117.6690000000029
 20
116.2809999999999
 10
116.868999999999
 20
116.2809999999999
 10
116.868999999999
 20
116.881
 10
102.869
 20
116.881
 10
102.869
 20
116.281
 10
102.0690000000007
 20
116.281
 10
102.0690000000007
 20
112.3810000000009
 10
102.869
 20
112.3810000000009
 10
102.869
 20
107.3809999999999
 10
102.0690000000007
 20
107.3809999999999
 10
102.0690000000007
 20
103.481
 10
102.869
 20
103.481
 10
102.869
 20
102.881
 10
116.86851
 20
102.881
  0
LWPOLYLINE
  5
278
330
1E
100
AcDbEntity
  8
0
 62
     7
100
AcDbPolyline
 90
       21
 70
     0
 43
0.0
 10
116.868999999999
 20
79.0698
 10
116.868999999999
 20
79.66979999999999
 10
117.6690000000029
 20
79.66979999999999
 10
117.6690000000029
 20
83.56979999999991
 10
116.868999999999
 20
83.56979999999991
 10
116.868999999999
 20
88.56980000000101
 10
117.6690000000029
 20
88.56980000000099
 10
117.6690000000029
 20
92.46979999999998
 10
116.868999999999
 20
92.46979999999998
 10
116.868999999999
 20
93.06980000000001
 10
102.869
 20
93.06980000000001
 10
102.869
 20
92.4698
 10
102.0690000000007
 20
92.4698
 10
102.0690000000007
 20
88.56980000000099
 10
102.869
 20
88.56980000000099
 10
102.869
 20
83.56979999999991
 10
102.0690000000007
 20
83.56979999999991
 10
102.0690000000007
 20
79.66979999999999
 10
102.869
 20
79.66980000000001
 10
102.869
 20
79.0698
 10
116.86851
 20
79.0698
  0
LWPOLYLINE
  5
279
330
1E
100
AcDbEntity
  8
0
 62
     7
100
AcDbPolyline
 90
       21
 70
     0
 43
0.0
 10
93.05679999999908
 20
79.0698
 10
93.05679999999908
 20
79.66979999999999
 10
93.8568000000029
 20
79.66979999999999
 10
93.8568000000029
 20
83.56979999999991
 10
93.05679999999908
 20
83.56979999999991
 10
93.05679999999908
 20
88.56980000000101
 10
93.8568000000029
 20
88.56980000000099
 10
93.8568000000029
 20
92.46979999999998
 10
93.05679999999908
 20
92.46979999999998
 10
93.05679999999908
 20
93.06980000000001
 10
79.0568
 20
93.06980000000001
 10
79.0568
 20
92.4698
 10
78.25680000000073
 20
92.4698
 10
78.25680000000073
 20
88.56980000000099
 10
79.0568
 20
88.56980000000099
 10
79.0568
 20
83.56979999999991
 10
78.25680000000073
 20
83.56979999999991
 10
78.25680000000073
 20
79.66979999999999
 10
79.0568
 20
79.66980000000001
 10
79.0568
 20
79.0698
 10
93.05630999999999
 20
79.0698
  0
LWPOLYLINE
  5
27A
330
1E
100
AcDbEntity
  8
0
 62
     7
100
AcDbPolyline
 90
       21
 70
     0
 43
0.0
 10
69.2442999999991
 20
79.0698
 10
69.2442999999991
 20
79.66979999999999
 10
70.04430000000292
 20
79.66979999999999
 10
70.04430000000292
 20
83.56979999999991
 10
69.2442999999991
 20
83.56979999999991
 10
69.2442999999991
 20
88.56980000000101
 10
70.04430000000292
 20
88.56980000000099
 10
70.04430000000292
 20
92.46979999999998
 10
69.2442999999991
 20
92.46979999999998
 10
69.2442999999991
 20
93.06980000000001
 10
55.24430000000001
 20
93.06980000000001
 10
55.24430000000001
 20
92.4698
 10
54.44430000000074
 20
92.4698
 10
54.44430000000074
 20
88.56980000000099
 10
55.2443
 20
88.56980000000099
 10
55.24430000000001
 20
83.56979999999991
 10
54.44430000000074
 20
83.56979999999991
 10
54.44430000000074
 20
79.66979999999999
 10
55.24430000000001
 20
79.66980000000001
 10
55.24430000000001
 20
79.0698
 10
69.24381000000001
 20
79.0698
  0
LWPOLYLINE
  5
27B
330
1E
100
AcDbEntity
  8
0
 62
     7
100
AcDbPolyline
 90
       21
 70
     0
 43
0.0
 10
45.43029999999909
 20
79.0698
 10
45.43029999999909
 20
79.66979999999999
 10
46.23030000000291
 20
79.66979999999999
 10
46.23030000000291
 20
83.56979999999991
 10
45.43029999999908
 20
83.56979999999991
 10
45.43029999999909
 20
88.56980000000101
 10
46.23030000000291
 20
88.56980000000099
 10
46.23030000000291
 20
92.46979999999998
 10
45.43029999999909
 20
92.46979999999998
 10
45.43029999999909
 20
93.06980000000001
 10
31.43029999999999
 20
93.06980000000001
 10
31.43029999999999
 20
92.4698
 10
30.63030000000072
 20
92.4698
 10
30.63030000000072
 20
88.56980000000099
 10
31.43029999999999
 20
88.56980000000099
 10
31.43029999999999
 20
83.56979999999991
 10
30.63030000000072
 20
83.56979999999991
 10
30.63030000000072
 20
79.66979999999999
 10
31.43029999999999
 20
79.66980000000001
 10
31.43029999999999
 20
79.0698
 10
45.42981
 20
79.0698
  0
LWPOLYLINE
  5
27C
330
1E
100
AcDbEntity
  8
0
 62
     7
100
AcDbPolyline
 90
       21
 70
     0
 43
0.0
 10
21.61918999999909
 20
79.0698
 10
21.61918999999909
 20
79.66979999999999
 10
22.41919000000291
 20
79.66979999999999
 10
22.41919000000291
 20
83.56979999999991
 10
21.61918999999908
 20
83.56979999999991
 10
21.61918999999909
 20
88.56980000000101
 10
22.41919000000291
 20
88.56980000000099
 10
22.41919000000291
 20
92.46979999999998
 10
21.61918999999909
 20
92.46979999999998
 10
21.61918999999909
 20
93.06980000000001
 10
7.619189999999999
 20
93.06980000000001
 10
7.619189999999999
 20
92.4698
 10
6.819190000000727
 20
92.4698
 10
6.819190000000727
 20
88.56980000000099
 10
7.619189999999998
 20
88.56980000000099
 10
7.619189999999999
 20
83.56979999999991
 10
6.819190000000727
 20
83.56979999999991
 10
6.819190000000727
 20
79.66979999999999
 10
7.619189999999999
 20
79.66980000000001
 10
7.619189999999999
 20
79.0698
 10
21.61869999999999
 20
79.0698
  0
LWPOLYLINE
  5
27D
330
1E
100
AcDbEntity
  8
0
 62
     7
100
AcDbPolyline
 90
       21
 70
     0
 43
0.0
 10
21.61918999999909
 20
55.2559
 10
21.61918999999909
 20
55.85589999999999
 10
22.41919000000291
 20
55.85589999999999
 10
22.41919000000291
 20
59.75589999999991
 10
21.61918999999908
 20
59.75589999999989
 10
21.61918999999909
 20
64.755900000001
 10
22.41919000000291
 20
64.75590000000099
 10
22.41919000000291
 20
68.65589999999999
 10
21.61918999999909
 20
68.65589999999999
 10
21.61918999999909
 20
69.25589999999999
 10
7.619189999999999
 20
69.25589999999999
 10
7.619189999999999
 20
68.6559
 10
6.819190000000727
 20
68.6559
 10
6.819190000000727
 20
64.75590000000099
 10
7.619189999999998
 20
64.75590000000099
 10
7.619189999999999
 20
59.75589999999991
 10
6.819190000000727
 20
59.75589999999991
 10
6.819190000000727
 20
55.85589999999999
 10
7.619189999999999
 20
55.8559
 10
7.619189999999999
 20
55.2559
 10
21.61869999999999
 20
55.2559
  0
LWPOLYLINE
  5
27E
330
1E
100
AcDbEntity
  8
0
 62
     7
100
AcDbPolyline
 90
       21
 70
     0
 43
0.0
 10
45.43029999999909
 20
55.2559
 10
45.43029999999909
 20
55.85589999999999
 10
46.23030000000291
 20
55.85589999999999
 10
46.23030000000291
 20
59.75589999999991
 10
45.43029999999908
 20
59.75589999999989
 10
45.43029999999909
 20
64.755900000001
 10
46.23030000000291
 20
64.75590000000099
 10
46.23030000000291
 20
68.65589999999999
 10
45.43029999999909
 20
68.65589999999999
 10
45.43029999999909
 20
69.25589999999999
 10
31.43029999999999
 20
69.25589999999999
 10
31.43029999999999
 20
68.6559
 10
30.63030000000072
 20
68.6559
 10
30.63030000000072
 20
64.75590000000099
 10
31.43029999999999
 20
64.75590000000099
 10
31.43029999999999
 20
59.75589999999991
 10
30.63030000000072
 20
59.75589999999991
 10
30.63030000000072
 20
55.85589999999999
 10
31.43029999999999
 20
55.8559
 10
31.43029999999999
 20
55.2559
 10
45.42981
 20
55.2559
  0
LWPOLYLINE
  5
27F
330
1E
100
AcDbEntity
  8
0
 62
     7
100
AcDbPolyline
 90
       21
 70
     0
 43
0.0
 10
69.2442999999991
 20
55.2559
 10
69.2442999999991
 20
55.85589999999999
 10
70.04430000000292
 20
55.85589999999999
 10
70.04430000000292
 20
59.75589999999991
 10
69.2442999999991
 20
59.75589999999989
 10
69.2442999999991
 20
64.755900000001
 10
70.04430000000292
 20
64.75590000000099
 10
70.04430000000292
 20
68.65589999999999
 10
69.2442999999991
 20
68.65589999999999
 10
69.2442999999991
 20
69.25589999999999
 10
55.24430000000001
 20
69.25589999999999
 10
55.24430000000001
 20
68.6559
 10
54.44430000000074
 20
68.6559
 10
54.44430000000074
 20
64.75590000000099
 10
55.2443
 20
64.75590000000099
 10
55.24430000000001
 20
59.75589999999991
 10
54.44430000000074
 20
59.75589999999991
 10
54.44430000000074
 20
55.85589999999999
 10
55.24430000000001
 20
55.8559
 10
55.24430000000001
 20
55.2559
 10
69.24381000000001
 20
55.2559
  0
LWPOLYLINE
  5
280
330
1E
100
AcDbEntity
  8
0
 62
     7
100
AcDbPolyline
 90
       21
 70
     0
 43
0.0
 10
93.05679999999908
 20
55.2559
 10
93.05679999999908
 20
55.85589999999999
 10
93.8568000000029
 20
55.85589999999999
 10
93.8568000000029
 20
59.75589999999991
 10
93.05679999999908
 20
59.75589999999989
 10
93.05679999999908
 20
64.755900000001
 10
93.8568000000029
 20
64.75590000000099
 10
93.8568000000029
 20
68.65589999999999
 10
93.05679999999908
 20
68.65589999999999
 10
93.05679999999908
 20
69.25589999999999
 10
79.0568
 20
69.25589999999999
 10
79.0568
 20
68.6559
 10
78.25680000000073
 20
68.6559
 10
78.25680000000073
 20
64.75590000000099
 10
79.0568
 20
64.75590000000099
 10
79.0568
 20
59.75589999999991
 10
78.25680000000073
 20
59.75589999999991
 10
78.25680000000073
 20
55.85589999999999
 10
79.0568
 20
55.8559
 10
79.0568
 20
55.2559
 10
93.05630999999999
 20
55.2559
  0
LWPOLYLINE
  5
281
330
1E
100
AcDbEntity
  8
0
 62
     7
100
AcDbPolyline
 90
       21
 70
     0
 43
0.0
 10
116.868999999999
 20
55.2559
 10
116.868999999999
 20
55.85589999999999
 10
117.6690000000029
 20
55.85589999999999
 10
117.6690000000029
 20
59.75589999999991
 10
116.868999999999
 20
59.75589999999989
 10
116.868999999999
 20
64.755900000001
 10
117.6690000000029
 20
64.75590000000099
 10
117.6690000000029
 20
68.65589999999999
 10
116.868999999999
 20
68.65589999999999
 10
116.868999999999
 20
69.25589999999999
 10
102.869
 20
69.25589999999999
 10
102.869
 20
68.6559
 10
102.0690000000007
 20
68.6559
 10
102.0690000000007
 20
64.75590000000099
 10
102.869
 20
64.75590000000099
 10
102.869
 20
59.75589999999991
 10
102.0690000000007
 20
59.75589999999991
 10
102.0690000000007
 20
55.85589999999999
 10
102.869
 20
55.8559
 10
102.869
 20
55.2559
 10
116.86851
 20
55.2559
  0
LWPOLYLINE
  5
282
330
1E
100
AcDbEntity
  8
0
 62
     7
100
AcDbPolyline
 90
       21
 70
     0
 43
0.0
 10
116.868999999999
 20
31.44339999999999
 10
116.868999999999
 20
32.04339999999999
 10
117.6690000000029
 20
32.04339999999999
 10
117.6690000000029
 20
35.94339999999991
 10
116.868999999999
 20
35.9433999999999
 10
116.868999999999
 20
40.94340000000101
 10
117.6690000000029
 20
40.94340000000099
 10
117.6690000000029
 20
44.84339999999998
 10
116.868999999999
 20
44.84339999999998
 10
116.868999999999
 20
45.4434
 10
102.869
 20
45.4434
 10
102.869
 20
44.8434
 10
102.0690000000007
 20
44.8434
 10
102.0690000000007
 20
40.94340000000099
 10
102.869
 20
40.94340000000099
 10
102.869
 20
35.94339999999991
 10
102.0690000000007
 20
35.94339999999991
 10
102.0690000000007
 20
32.04339999999999
 10
102.869
 20
32.0434
 10
102.869
 20
31.44339999999999
 10
116.86851
 20
31.44339999999999
  0
LWPOLYLINE
  5
283
330
1E
100
AcDbEntity
  8
0
 62
     7
100
AcDbPolyline
 90
       21
 70
     0
 43
0.0
 10
93.05679999999908
 20
31.44339999999999
 10
93.05679999999908
 20
32.04339999999999
 10
93.8568000000029
 20
32.04339999999999
 10
93.8568000000029
 20
35.94339999999991
 10
93.05679999999908
 20
35.9433999999999
 10
93.05679999999908
 20
40.94340000000101
 10
93.8568000000029
 20
40.94340000000099
 10
93.8568000000029
 20
44.84339999999998
 10
93.05679999999908
 20
44.84339999999998
 10
93.05679999999908
 20
45.4434
 10
79.0568
 20
45.4434
 10
79.0568
 20
44.8434
 10
78.25680000000073
 20
44.8434
 10
78.25680000000073
 20
40.94340000000099
 10
79.0568
 20
40.94340000000099
 10
79.0568
 20
35.94339999999991
 10
78.25680000000073
 20
35.94339999999991
 10
78.25680000000073
 20
32.04339999999999
 10
79.0568
 20
32.0434
 10
79.0568
 20
31.44339999999999
 10
93.05630999999999
 20
31.44339999999999
  0
LWPOLYLINE
  5
284
330
1E
100
AcDbEntity
  8
0
 62
     7
100
AcDbPolyline
 90
       21
 70
     0
 43
0.0
 10
69.2442999999991
 20
31.44339999999999
 10
69.2442999999991
 20
32.04339999999999
 10
70.04430000000292
 20
32.04339999999999
 10
70.04430000000292
 20
35.94339999999991
 10
69.2442999999991
 20
35.9433999999999
 10
69.2442999999991
 20
40.94340000000101
 10
70.04430000000292
 20
40.94340000000099
 10
70.04430000000292
 20
44.84339999999998
 10
69.2442999999991
 20
44.84339999999998
 10
69.2442999999991
 20
45.4434
 10
55.24430000000001
 20
45.4434
 10
55.24430000000001
 20
44.8434
 10
54.44430000000074
 20
44.8434
 10
54.44430000000074
 20
40.94340000000099
 10
55.2443
 20
40.94340000000099
 10
55.24430000000001
 20
35.94339999999991
 10
54.44430000000074
 20
35.94339999999991
 10
54.44430000000074
 20
32.04339999999999
 10
55.24430000000001
 20
32.0434
 10
55.24430000000001
 20
31.44339999999999
 10
69.24381000000001
 20
31.44339999999999
  0
LWPOLYLINE
  5
285
330
1E
100
AcDbEntity
  8
0
 62
     7
100
AcDbPolyline
 90
       21
 70
     0
 43
0.0
 10
45.43029999999909
 20
30.8434
 10
45.43029999999909
 20
31.44339999999999
 10
46.23030000000291
 20
31.44339999999999
 10
46.23030000000291
 20
35.34339999999991
 10
45.43029999999908
 20
35.3433999999999
 10
45.43029999999909
 20
40.34340000000101
 10
46.23030000000291
 20
40.34340000000099
 10
46.23030000000291
 20
44.24339999999999
 10
45.43029999999909
 20
44.24339999999999
 10
45.43029999999909
 20
44.8434
 10
31.43029999999999
 20
44.8434
 10
31.43029999999999
 20
44.2434
 10
30.63030000000072
 20
44.2434
 10
30.63030000000072
 20
40.34340000000099
 10
31.43029999999999
 20
40.34340000000099
 10
31.43029999999999
 20
35.34339999999991
 10
30.63030000000072
 20
35.34339999999991
 10
30.63030000000072
 20
31.44339999999999
 10
31.43029999999999
 20
31.44340000000001
 10
31.43029999999999
 20
30.8434
 10
45.42981
 20
30.8434
  0
LWPOLYLINE
  5
286
330
1E
100
AcDbEntity
  8
0
 62
     7
100
AcDbPolyline
 90
       21
 70
     0
 43
0.0
 10
21.61918999999909
 20
31.44339999999999
 10
21.61918999999909
 20
32.04339999999999
 10
22.41919000000291
 20
32.04339999999999
 10
22.41919000000291
 20
35.94339999999991
 10
21.61918999999908
 20
35.9433999999999
 10
21.61918999999909
 20
40.94340000000101
 10
22.41919000000291
 20
40.94340000000099
 10
22.41919000000291
 20
44.84339999999998
 10
21.61918999999909
 20
44.84339999999998
 10
21.61918999999909
 20
45.4434
 10
7.619189999999999
 20
45.4434
 10
7.619189999999999
 20
44.8434
 10
6.819190000000727
 20
44.8434
 10
6.819190000000727
 20
40.94340000000099
 10
7.619189999999998
 20
40.94340000000099
 10
7.619189999999999
 20
35.94339999999991
 10
6.819190000000727
 20
35.94339999999991
 10
6.819190000000727
 20
32.04339999999999
 10
7.619189999999999
 20
32.0434
 10
7.619189999999999
 20
31.44339999999999
 10
21.61869999999999
 20
31.44339999999999
  0
LWPOLYLINE
  5
287
330
1E
100
AcDbEntity
  8
0
 62
     7
100
AcDbPolyline
 90
       21
 70
     0
 43
0.0
 10
21.61918999999909
 20
7.631100000000003
 10
21.61918999999909
 20
8.231099999999997
 10
22.41919000000291
 20
8.231099999999997
 10
22.41919000000291
 20
12.13109999999991
 10
21.61918999999908
 20
12.1310999999999
 10
21.61918999999909
 20
17.13110000000101
 10
22.41919000000291
 20
17.13110000000099
 10
22.41919000000291
 20
21.03109999999999
 10
21.61918999999909
 20
21.03109999999999
 10
21.61918999999909
 20
21.6311
 10
7.619189999999999
 20
21.6311
 10
7.619189999999999
 20
21.0311
 10
6.819190000000727
 20
21.0311
 10
6.819190000000727
 20
17.13110000000099
 10
7.619189999999998
 20
17.13110000000099
 10
7.619189999999999
 20
12.13109999999991
 10
6.819190000000727
 20
12.13109999999991
 10
6.819190000000727
 20
8.231099999999997
 10
7.619189999999999
 20
8.231100000000012
 10
7.619189999999999
 20
7.631100000000003
 10
21.61869999999999
 20
7.631100000000003
  0
LWPOLYLINE
  5
288
330
1E
100
AcDbEntity
  8
0
 62
     7
100
AcDbPolyline
 90
       21
 70
     0
 43
0.0
 10
45.43029999999909
 20
7.031100000000009
 10
45.43029999999909
 20
7.631100000000003
 10
46.23030000000291
 20
7.631100000000003
 10
46.23030000000291
 20
11.53109999999992
 10
45.43029999999908
 20
11.5310999999999
 10
45.43029999999909
 20
16.53110000000101
 10
46.23030000000291
 20
16.531100000001
 10
46.23030000000291
 20
20.43109999999999
 10
45.43029999999909
 20
20.43109999999999
 10
45.43029999999909
 20
21.0311
 10
31.43029999999999
 20
21.0311
 10
31.43029999999999
 20
20.43110000000001
 10
30.63030000000072
 20
20.43110000000001
 10
30.63030000000072
 20
16.531100000001
 10
31.43029999999999
 20
16.531100000001
 10
31.43029999999999
 20
11.53109999999992
 10
30.63030000000072
 20
11.53109999999992
 10
30.63030000000072
 20
7.631100000000003
 10
31.43029999999999
 20
7.631100000000017
 10
31.43029999999999
 20
7.031100000000009
 10
45.42981
 20
7.031100000000009
  0
LWPOLYLINE
  5
289
330
1E
100
AcDbEntity
  8
0
 62
     7
100
AcDbPolyline
 90
       21
 70
     0
 43
0.0
 10
69.2442999999991
 20
7.631100000000003
 10
69.2442999999991
 20
8.231099999999997
 10
70.04430000000292
 20
8.231099999999997
 10
70.04430000000292
 20
12.13109999999991
 10
69.2442999999991
 20
12.1310999999999
 10
69.2442999999991
 20
17.13110000000101
 10
70.04430000000292
 20
17.13110000000099
 10
70.04430000000292
 20
21.03109999999999
 10
69.2442999999991
 20
21.03109999999999
 10
69.2442999999991
 20
21.6311
 10
55.24430000000001
 20
21.6311
 10
55.24430000000001
 20
21.0311
 10
54.44430000000074
 20
21.0311
 10
54.44430000000074
 20
17.13110000000099
 10
55.2443
 20
17.13110000000099
 10
55.24430000000001
 20
12.13109999999991
 10
54.44430000000074
 20
12.13109999999991
 10
54.44430000000074
 20
8.231099999999997
 10
55.24430000000001
 20
8.231100000000012
 10
55.24430000000001
 20
7.631100000000003
 10
69.24381000000001
 20
7.631100000000003
  0
LWPOLYLINE
  5
28A
330
1E
100
AcDbEntity
  8
0
 62
     7
100
AcDbPolyline
 90
       21
 70
     0
 43
0.0
 10
93.05679999999908
 20
7.631100000000003
 10
93.05679999999908
 20
8.231099999999997
 10
93.8568000000029
 20
8.231099999999997
 10
93.8568000000029
 20
12.13109999999991
 10
93.05679999999908
 20
12.1310999999999
 10
93.05679999999908
 20
17.13110000000101
 10
93.8568000000029
 20
17.13110000000099
 10
93.8568000000029
 20
21.03109999999999
 10
93.05679999999908
 20
21.03109999999999
 10
93.05679999999908
 20
21.6311
 10
79.0568
 20
21.6311
 10
79.0568
 20
21.0311
 10
78.25680000000073
 20
21.0311
 10
78.25680000000073
 20
17.13110000000099
 10
79.0568
 20
17.13110000000099
 10
79.0568
 20
12.13109999999991
 10
78.25680000000073
 20
12.13109999999991
 10
78.25680000000073
 20
8.231099999999997
 10
79.0568
 20
8.231100000000012
 10
79.0568
 20
7.631100000000003
 10
93.05630999999999
 20
7.631100000000003
  0
LWPOLYLINE
  5
28B
330
1E
100
AcDbEntity
  8
0
 62
     7
100
AcDbPolyline
 90
       21
 70
     0
 43
0.0
 10
116.868999999999
 20
7.631100000000003
 10
116.868999999999
 20
8.231099999999997
 10
117.6690000000029
 20
8.231099999999997
 10
117.6690000000029
 20
12.13109999999991
 10
116.868999999999
 20
12.1310999999999
 10
116.868999999999
 20
17.13110000000101
 10
117.6690000000029
 20
17.13110000000099
 10
117.6690000000029
 20
21.03109999999999
 10
116.868999999999
 20
21.03109999999999
 10
116.868999999999
 20
21.6311
 10
102.869
 20
21.6311
 10
102.869
 20
21.0311
 10
102.0690000000007
 20
21.0311
 10
102.0690000000007
 20
17.13110000000099
 10
102.869
 20
17.13110000000099
 10
102.869
 20
12.13109999999991
 10
102.0690000000007
 20
12.13109999999991
 10
102.0690000000007
 20
8.231099999999997
 10
102.869
 20
8.231100000000012
 10
102.869
 20
7.631100000000003
 10
116.86851
 20
7.631100000000003
  0
LWPOLYLINE
  5
28E
330
1E
100
AcDbEntity
  8
0
 62
     7
100
AcDbPolyline
 90
       21
 70
     0
 43
0.0
 10
164.494109999999
 20
7.030100000000004
 10
164.494109999999
 20
7.630099999999998
 10
165.2941100000029
 20
7.630099999999998
 10
165.2941100000029
 20
11.53009999999991
 10
164.494109999999
 20
11.5300999999999
 10
164.494109999999
 20
16.53010000000101
 10
165.2941100000029
 20
16.530100000001
 10
165.2941100000029
 20
20.43009999999999
 10
164.494109999999
 20
20.43009999999999
 10
164.494109999999
 20
21.0301
 10
150.49411
 20
21.0301
 10
150.49411
 20
20.43010000000001
 10
149.6941100000007
 20
20.43010000000001
 10
149.6941100000007
 20
16.530100000001
 10
150.49411
 20
16.530100000001
 10
150.49411
 20
11.53009999999991
 10
149.6941100000007
 20
11.53009999999991
 10
149.6941100000007
 20
7.630099999999998
 10
150.49411
 20
7.630100000000012
 10
150.49411
 20
7.030100000000004
 10
164.49362
 20
7.030100000000004
  0
LWPOLYLINE
  5
28F
330
1E
100
AcDbEntity
  8
0
 62
     7
100
AcDbPolyline
 90
       21
 70
     0
 43
0.0
 10
164.494109999999
 20
30.84239999999999
 10
164.494109999999
 20
31.44239999999999
 10
165.2941100000029
 20
31.44239999999999
 10
165.2941100000029
 20
35.34239999999991
 10
164.494109999999
 20
35.34239999999989
 10
164.494109999999
 20
40.342400000001
 10
165.2941100000029
 20
40.34240000000099
 10
165.2941100000029
 20
44.24239999999999
 10
164.494109999999
 20
44.24239999999999
 10
164.494109999999
 20
44.84239999999999
 10
150.49411
 20
44.84239999999999
 10
150.49411
 20
44.2424
 10
149.6941100000007
 20
44.2424
 10
149.6941100000007
 20
40.34240000000099
 10
150.49411
 20
40.34240000000099
 10
150.49411
 20
35.34239999999991
 10
149.6941100000007
 20
35.34239999999991
 10
149.6941100000007
 20
31.44239999999999
 10
150.49411
 20
31.4424
 10
150.49411
 20
30.84239999999999
 10
164.49362
 20
30.84239999999999
  0
LWPOLYLINE
  5
290
330
1E
100
AcDbEntity
  8
0
 62
     7
100
AcDbPolyline
 90
       21
 70
     0
 43
0.0
 10
164.494109999999
 20
55.25489999999999
 10
164.494109999999
 20
55.85489999999999
 10
165.2941100000029
 20
55.85489999999999
 10
165.2941100000029
 20
59.7548999999999
 10
164.494109999999
 20
59.75489999999989
 10
164.494109999999
 20
64.754900000001
 10
165.2941100000029
 20
64.75490000000099
 10
165.2941100000029
 20
68.65489999999998
 10
164.494109999999
 20
68.65489999999998
 10
164.494109999999
 20
69.25489999999999
 10
150.49411
 20
69.25489999999999
 10
150.49411
 20
68.6549
 10
149.6941100000007
 20
68.6549
 10
149.6941100000007
 20
64.75490000000099
 10
150.49411
 20
64.75490000000099
 10
150.49411
 20
59.7548999999999
 10
149.6941100000007
 20
59.7548999999999
 10
149.6941100000007
 20
55.85489999999999
 10
150.49411
 20
55.8549
 10
150.49411
 20
55.25489999999999
 10
164.49362
 20
55.25489999999999
  0
LWPOLYLINE
  5
291
330
1E
100
AcDbEntity
  8
0
 62
     7
100
AcDbPolyline
 90
       21
 70
     0
 43
0.0
 10
164.494109999999
 20
79.0688
 10
164.494109999999
 20
79.66879999999999
 10
165.2941100000029
 20
79.66879999999999
 10
165.2941100000029
 20
83.56879999999991
 10
164.494109999999
 20
83.56879999999989
 10
164.494109999999
 20
88.56880000000101
 10
165.2941100000029
 20
88.56880000000099
 10
165.2941100000029
 20
92.46879999999999
 10
164.494109999999
 20
92.46879999999999
 10
164.494109999999
 20
93.06879999999999
 10
150.49411
 20
93.06879999999999
 10
150.49411
 20
92.4688
 10
149.6941100000007
 20
92.4688
 10
149.6941100000007
 20
88.56880000000099
 10
150.49411
 20
88.56880000000099
 10
150.49411
 20
83.56879999999991
 10
149.6941100000007
 20
83.56879999999991
 10
149.6941100000007
 20
79.66879999999999
 10
150.49411
 20
79.6688
 10
150.49411
 20
79.0688
 10
164.49362
 20
79.0688
  0
LWPOLYLINE
  5
292
330
1E
100
AcDbEntity
  8
0
 62
     7
100
AcDbPolyline
 90
       21
 70
     0
 43
0.0
 10
164.494109999999
 20
102.8799999999999
 10
164.494109999999
 20
103.4799999999999
 10
165.2941100000029
 20
103.4799999999999
 10
165.2941100000029
 20
107.3799999999999
 10
164.494109999999
 20
107.3799999999998
 10
164.494109999999
 20
112.380000000001
 10
165.2941100000029
 20
112.3800000000009
 10
165.2941100000029
 20
116.2799999999999
 10
164.494109999999
 20
116.2799999999999
 10
164.494109999999
 20
116.88
 10
150.49411
 20
116.88
 10
150.49411
 20
116.28
 10
149.6941100000007
 20
116.28
 10
149.6941100000007
 20
112.3800000000009
 10
150.49411
 20
112.3800000000009
 10
150.49411
 20
107.3799999999999
 10
149.6941100000007
 20
107.3799999999999
 10
149.6941100000007
 20
103.4799999999999
 10
150.49411
 20
103.48
 10
150.49411
 20
102.8799999999999
 10
164.49362
 20
102.8799999999999
  0
LWPOLYLINE
  5
293
330
1E
100
AcDbEntity
  8
0
 62
     7
100
AcDbPolyline
 90
       21
 70
     0
 43
0.0
 10
140.682999999999
 20
7.630099999999998
 10
140.682999999999
 20
8.230099999999993
 10
141.4830000000029
 20
8.230099999999993
 10
141.4830000000029
 20
12.13009999999991
 10
140.682999999999
 20
12.13009999999989
 10
140.682999999999
 20
17.130100000001
 10
141.4830000000029
 20
17.13010000000099
 10
141.4830000000029
 20
21.03009999999998
 10
140.682999999999
 20
21.03009999999998
 10
140.682999999999
 20
21.63009999999999
 10
126.683
 20
21.63009999999999
 10
126.683
 20
21.0301
 10
125.8830000000007
 20
21.0301
 10
125.8830000000007
 20
17.13010000000099
 10
126.683
 20
17.13010000000099
 10
126.683
 20
12.13009999999991
 10
125.8830000000007
 20
12.13009999999991
 10
125.8830000000007
 20
8.230099999999993
 10
126.683
 20
8.230100000000007
 10
126.683
 20
7.630099999999998
 10
140.68251
 20
7.630099999999998
  0
LWPOLYLINE
  5
294
330
1E
100
AcDbEntity
  8
0
 62
     7
100
AcDbPolyline
 90
       21
 70
     0
 43
0.0
 10
140.682999999999
 20
102.881
 10
140.682999999999
 20
103.481
 10
141.4830000000029
 20
103.481
 10
141.4830000000029
 20
107.3809999999999
 10
140.682999999999
 20
107.3809999999999
 10
140.682999999999
 20
112.381000000001
 10
141.4830000000029
 20
112.3810000000009
 10
141.4830000000029
 20
116.2809999999999
 10
140.682999999999
 20
116.2809999999999
 10
140.682999999999
 20
116.881
 10
126.683
 20
116.881
 10
126.683
 20
116.281
 10
125.8830000000007
 20
116.281
 10
125.8830000000007
 20
112.3810000000009
 10
126.683
 20
112.3810000000009
 10
126.683
 20
107.3809999999999
 10
125.8830000000007
 20
107.3809999999999
 10
125.8830000000007
 20
103.481
 10
126.683
 20
103.481
 10
126.683
 20
102.881
 10
140.68251
 20
102.881
  0
LWPOLYLINE
  5
295
330
1E
100
AcDbEntity
  8
0
 62
     7
100
AcDbPolyline
 90
       21
 70
     0
 43
0.0
 10
140.682999999999
 20
31.44239999999999
 10
140.682999999999
 20
32.04239999999998
 10
141.4830000000029
 20
32.04239999999998
 10
141.4830000000029
 20
35.9423999999999
 10
140.682999999999
 20
35.94239999999989
 10
140.682999999999
 20
40.942400000001
 10
141.4830000000029
 20
40.94240000000098
 10
141.4830000000029
 20
44.84239999999998
 10
140.682999999999
 20
44.84239999999998
 10
140.682999999999
 20
45.44239999999999
 10
126.683
 20
45.44239999999999
 10
126.683
 20
44.84239999999999
 10
125.8830000000007
 20
44.84239999999999
 10
125.8830000000007
 20
40.94240000000098
 10
126.683
 20
40.94240000000098
 10
126.683
 20
35.9423999999999
 10
125.8830000000007
 20
35.9423999999999
 10
125.8830000000007
 20
32.04239999999998
 10
126.683
 20
32.0424
 10
126.683
 20
31.44239999999999
 10
140.68251
 20
31.44239999999999
  0
LWPOLYLINE
  5
296
330
1E
100
AcDbEntity
  8
0
 62
     7
100
AcDbPolyline
 90
       21
 70
     0
 43
0.0
 10
140.682999999999
 20
55.25489999999999
 10
140.682999999999
 20
55.85489999999999
 10
141.4830000000029
 20
55.85489999999999
 10
141.4830000000029
 20
59.7548999999999
 10
140.682999999999
 20
59.75489999999989
 10
140.682999999999
 20
64.754900000001
 10
141.4830000000029
 20
64.75490000000099
 10
141.4830000000029
 20
68.65489999999998
 10
140.682999999999
 20
68.65489999999998
 10
140.682999999999
 20
69.25489999999999
 10
126.683
 20
69.25489999999999
 10
126.683
 20
68.6549
 10
125.8830000000007
 20
68.6549
 10
125.8830000000007
 20
64.75490000000099
 10
126.683
 20
64.75490000000099
 10
126.683
 20
59.7548999999999
 10
125.8830000000007
 20
59.7548999999999
 10
125.8830000000007
 20
55.85489999999999
 10
126.683
 20
55.8549
 10
126.683
 20
55.25489999999999
 10
140.68251
 20
55.25489999999999
  0
LWPOLYLINE
  5
297
330
1E
100
AcDbEntity
  8
0
 62
     7
100
AcDbPolyline
 90
       21
 70
     0
 43
0.0
 10
140.682999999999
 20
79.0688
 10
140.682999999999
 20
79.66879999999999
 10
141.4830000000029
 20
79.66879999999999
 10
141.4830000000029
 20
83.56879999999991
 10
140.682999999999
 20
83.56879999999989
 10
140.682999999999
 20
88.56880000000101
 10
141.4830000000029
 20
88.56880000000099
 10
141.4830000000029
 20
92.46879999999999
 10
140.682999999999
 20
92.46879999999999
 10
140.682999999999
 20
93.06879999999999
 10
126.683
 20
93.06879999999999
 10
126.683
 20
92.4688
 10
125.8830000000007
 20
92.4688
 10
125.8830000000007
 20
88.56880000000099
 10
126.683
 20
88.56880000000099
 10
126.683
 20
83.56879999999991
 10
125.8830000000007
 20
83.56879999999991
 10
125.8830000000007
 20
79.66879999999999
 10
126.683
 20
79.6688
 10
126.683
 20
79.0688
 10
140.68251
 20
79.0688
  0
LWPOLYLINE
  5
298
330
1E
100
AcDbEntity
  8
0
 62
     7
100
AcDbPolyline
 90
       21
 70
     0
 43
0.0
 10
235.9328099999991
 20
7.630099999999998
 10
235.9328099999991
 20
8.230099999999993
 10
236.7328100000029
 20
8.230099999999993
 10
236.7328100000029
 20
12.13009999999991
 10
235.9328099999991
 20
12.13009999999989
 10
235.9328099999991
 20
17.130100000001
 10
236.7328100000029
 20
17.13010000000099
 10
236.7328100000029
 20
21.03009999999998
 10
235.9328099999991
 20
21.03009999999998
 10
235.9328099999991
 20
21.63009999999999
 10
221.93281
 20
21.63009999999999
 10
221.93281
 20
21.0301
 10
221.1328100000007
 20
21.0301
 10
221.1328100000007
 20
17.13010000000099
 10
221.93281
 20
17.13010000000099
 10
221.93281
 20
12.13009999999991
 10
221.1328100000007
 20
12.13009999999991
 10
221.1328100000007
 20
8.230099999999993
 10
221.93281
 20
8.230100000000007
 10
221.93281
 20
7.630099999999998
 10
235.9323199999999
 20
7.630099999999998
  0
LWPOLYLINE
  5
299
330
1E
100
AcDbEntity
  8
0
 62
     7
100
AcDbPolyline
 90
       21
 70
     0
 43
0.0
 10
188.3081099999991
 20
7.630099999999998
 10
188.3081099999991
 20
8.230099999999993
 10
189.1081100000029
 20
8.230099999999993
 10
189.1081100000029
 20
12.13009999999991
 10
188.3081099999991
 20
12.13009999999989
 10
188.3081099999991
 20
17.130100000001
 10
189.1081100000029
 20
17.13010000000099
 10
189.1081100000029
 20
21.03009999999998
 10
188.3081099999991
 20
21.03009999999998
 10
188.3081099999991
 20
21.63009999999999
 10
174.3081099999999
 20
21.63009999999999
 10
174.3081099999999
 20
21.0301
 10
173.5081100000007
 20
21.0301
 10
173.5081100000007
 20
17.13010000000099
 10
174.3081099999999
 20
17.13010000000099
 10
174.3081099999999
 20
12.13009999999991
 10
173.5081100000007
 20
12.13009999999991
 10
173.5081100000007
 20
8.230099999999993
 10
174.3081099999999
 20
8.230100000000007
 10
174.3081099999999
 20
7.630099999999998
 10
188.30762
 20
7.630099999999998
  0
LWPOLYLINE
  5
29A
330
1E
100
AcDbEntity
  8
0
 62
     7
100
AcDbPolyline
 90
       21
 70
     0
 43
0.0
 10
212.120609999999
 20
7.630099999999998
 10
212.120609999999
 20
8.230099999999993
 10
212.9206100000029
 20
8.230099999999993
 10
212.9206100000029
 20
12.13009999999991
 10
212.120609999999
 20
12.13009999999989
 10
212.120609999999
 20
17.130100000001
 10
212.9206100000029
 20
17.13010000000099
 10
212.9206100000029
 20
21.03009999999998
 10
212.120609999999
 20
21.03009999999998
 10
212.120609999999
 20
21.63009999999999
 10
198.1206099999999
 20
21.63009999999999
 10
198.1206099999999
 20
21.0301
 10
197.3206100000007
 20
21.0301
 10
197.3206100000007
 20
17.13010000000099
 10
198.1206099999999
 20
17.13010000000099
 10
198.1206099999999
 20
12.13009999999991
 10
197.3206100000007
 20
12.13009999999991
 10
197.3206100000007
 20
8.230099999999993
 10
198.1206099999999
 20
8.230100000000007
 10
198.1206099999999
 20
7.630099999999998
 10
212.1201199999999
 20
7.630099999999998
  0
LWPOLYLINE
  5
29B
330
1E
100
AcDbEntity
  8
0
 62
     7
100
AcDbPolyline
 90
       21
 70
     0
 43
0.0
 10
235.9328099999991
 20
102.8799999999999
 10
235.9328099999991
 20
103.4799999999999
 10
236.7328100000029
 20
103.4799999999999
 10
236.7328100000029
 20
107.3799999999999
 10
235.9328099999991
 20
107.3799999999998
 10
235.9328099999991
 20
112.380000000001
 10
236.7328100000029
 20
112.3800000000009
 10
236.7328100000029
 20
116.2799999999999
 10
235.9328099999991
 20
116.2799999999999
 10
235.9328099999991
 20
116.88
 10
221.93281
 20
116.88
 10
221.93281
 20
116.28
 10
221.1328100000007
 20
116.28
 10
221.1328100000007
 20
112.3800000000009
 10
221.93281
 20
112.3800000000009
 10
221.93281
 20
107.3799999999999
 10
221.1328100000007
 20
107.3799999999999
 10
221.1328100000007
 20
103.4799999999999
 10
221.93281
 20
103.48
 10
221.93281
 20
102.8799999999999
 10
235.9323199999999
 20
102.8799999999999
  0
LWPOLYLINE
  5
29C
330
1E
100
AcDbEntity
  8
0
 62
     7
100
AcDbPolyline
 90
       21
 70
     0
 43
0.0
 10
235.9328099999991
 20
31.44239999999999
 10
235.9328099999991
 20
32.04239999999998
 10
236.7328100000029
 20
32.04239999999998
 10
236.7328100000029
 20
35.9423999999999
 10
235.9328099999991
 20
35.94239999999989
 10
235.9328099999991
 20
40.942400000001
 10
236.7328100000029
 20
40.94240000000098
 10
236.7328100000029
 20
44.84239999999998
 10
235.9328099999991
 20
44.84239999999998
 10
235.9328099999991
 20
45.44239999999999
 10
221.93281
 20
45.44239999999999
 10
221.93281
 20
44.84239999999999
 10
221.1328100000007
 20
44.84239999999999
 10
221.1328100000007
 20
40.94240000000098
 10
221.93281
 20
40.94240000000098
 10
221.93281
 20
35.9423999999999
 10
221.1328100000007
 20
35.9423999999999
 10
221.1328100000007
 20
32.04239999999998
 10
221.93281
 20
32.0424
 10
221.93281
 20
31.44239999999999
 10
235.9323199999999
 20
31.44239999999999
  0
LWPOLYLINE
  5
29D
330
1E
100
AcDbEntity
  8
0
 62
     7
100
AcDbPolyline
 90
       21
 70
     0
 43
0.0
 10
235.9328099999991
 20
55.25489999999999
 10
235.9328099999991
 20
55.85489999999999
 10
236.7328100000029
 20
55.85489999999999
 10
236.7328100000029
 20
59.7548999999999
 10
235.9328099999991
 20
59.75489999999989
 10
235.9328099999991
 20
64.754900000001
 10
236.7328100000029
 20
64.75490000000099
 10
236.7328100000029
 20
68.65489999999998
 10
235.9328099999991
 20
68.65489999999998
 10
235.9328099999991
 20
69.25489999999999
 10
221.93281
 20
69.25489999999999
 10
221.93281
 20
68.6549
 10
221.1328100000007
 20
68.6549
 10
221.1328100000007
 20
64.75490000000099
 10
221.93281
 20
64.75490000000099
 10
221.93281
 20
59.7548999999999
 10
221.1328100000007
 20
59.7548999999999
 10
221.1328100000007
 20
55.85489999999999
 10
221.93281
 20
55.8549
 10
221.93281
 20
55.25489999999999
 10
235.9323199999999
 20
55.25489999999999
  0
LWPOLYLINE
  5
29E
330
1E
100
AcDbEntity
  8
0
 62
     7
100
AcDbPolyline
 90
       21
 70
     0
 43
0.0
 10
235.9328099999991
 20
79.0688
 10
235.9328099999991
 20
79.66879999999999
 10
236.7328100000029
 20
79.66879999999999
 10
236.7328100000029
 20
83.56879999999991
 10
235.9328099999991
 20
83.56879999999989
 10
235.9328099999991
 20
88.56880000000101
 10
236.7328100000029
 20
88.56880000000099
 10
236.7328100000029
 20
92.46879999999999
 10
235.9328099999991
 20
92.46879999999999
 10
235.9328099999991
 20
93.06879999999999
 10
221.93281
 20
93.06879999999999
 10
221.93281
 20
92.4688
 10
221.1328100000007
 20
92.4688
 10
221.1328100000007
 20
88.56880000000099
 10
221.93281
 20
88.56880000000099
 10
221.93281
 20
83.56879999999991
 10
221.1328100000007
 20
83.56879999999991
 10
221.1328100000007
 20
79.66879999999999
 10
221.93281
 20
79.6688
 10
221.93281
 20
79.0688
 10
235.9323199999999
 20
79.0688
  0
LWPOLYLINE
  5
29F
330
1E
100
AcDbEntity
  8
0
 62
     7
100
AcDbPolyline
 90
       21
 70
     0
 43
0.0
 10
212.120609999999
 20
102.8799999999999
 10
212.120609999999
 20
103.4799999999999
 10
212.9206100000029
 20
103.4799999999999
 10
212.9206100000029
 20
107.3799999999999
 10
212.120609999999
 20
107.3799999999998
 10
212.120609999999
 20
112.380000000001
 10
212.9206100000029
 20
112.3800000000009
 10
212.9206100000029
 20
116.2799999999999
 10
212.120609999999
 20
116.2799999999999
 10
212.120609999999
 20
116.88
 10
198.1206099999999
 20
116.88
 10
198.1206099999999
 20
116.28
 10
197.3206100000007
 20
116.28
 10
197.3206100000007
 20
112.3800000000009
 10
198.1206099999999
 20
112.3800000000009
 10
198.1206099999999
 20
107.3799999999999
 10
197.3206100000007
 20
107.3799999999999
 10
197.3206100000007
 20
103.4799999999999
 10
198.1206099999999
 20
103.48
 10
198.1206099999999
 20
102.8799999999999
 10
212.1201199999999
 20
102.8799999999999
  0
LWPOLYLINE
  5
2A0
330
1E
100
AcDbEntity
  8
0
 62
     7
100
AcDbPolyline
 90
       21
 70
     0
 43
0.0
 10
188.3081099999991
 20
102.8799999999999
 10
188.3081099999991
 20
103.4799999999999
 10
189.1081100000029
 20
103.4799999999999
 10
189.1081100000029
 20
107.3799999999999
 10
188.3081099999991
 20
107.3799999999998
 10
188.3081099999991
 20
112.380000000001
 10
189.1081100000029
 20
112.3800000000009
 10
189.1081100000029
 20
116.2799999999999
 10
188.3081099999991
 20
116.2799999999999
 10
188.3081099999991
 20
116.88
 10
174.3081099999999
 20
116.88
 10
174.3081099999999
 20
116.28
 10
173.5081100000007
 20
116.28
 10
173.5081100000007
 20
112.3800000000009
 10
174.3081099999999
 20
112.3800000000009
 10
174.3081099999999
 20
107.3799999999999
 10
173.5081100000007
 20
107.3799999999999
 10
173.5081100000007
 20
103.4799999999999
 10
174.3081099999999
 20
103.48
 10
174.3081099999999
 20
102.8799999999999
 10
188.30762
 20
102.8799999999999
  0
LWPOLYLINE
  5
2A1
330
1E
100
AcDbEntity
  8
0
 62
     7
100
AcDbPolyline
 90
       21
 70
     0
 43
0.0
 10
188.3081099999991
 20
31.44239999999999
 10
188.3081099999991
 20
32.04239999999998
 10
189.1081100000029
 20
32.04239999999998
 10
189.1081100000029
 20
35.9423999999999
 10
188.3081099999991
 20
35.94239999999989
 10
188.3081099999991
 20
40.942400000001
 10
189.1081100000029
 20
40.94240000000098
 10
189.1081100000029
 20
44.84239999999998
 10
188.3081099999991
 20
44.84239999999998
 10
188.3081099999991
 20
45.44239999999999
 10
174.3081099999999
 20
45.44239999999999
 10
174.3081099999999
 20
44.84239999999999
 10
173.5081100000007
 20
44.84239999999999
 10
173.5081100000007
 20
40.94240000000098
 10
174.3081099999999
 20
40.94240000000098
 10
174.3081099999999
 20
35.9423999999999
 10
173.5081100000007
 20
35.9423999999999
 10
173.5081100000007
 20
32.04239999999998
 10
174.3081099999999
 20
32.0424
 10
174.3081099999999
 20
31.44239999999999
 10
188.30762
 20
31.44239999999999
  0
LWPOLYLINE
  5
2A2
330
1E
100
AcDbEntity
  8
0
 62
     7
100
AcDbPolyline
 90
       21
 70
     0
 43
0.0
 10
188.3081099999991
 20
55.25489999999999
 10
188.3081099999991
 20
55.85489999999999
 10
189.1081100000029
 20
55.85489999999999
 10
189.1081100000029
 20
59.7548999999999
 10
188.3081099999991
 20
59.75489999999989
 10
188.3081099999991
 20
64.754900000001
 10
189.1081100000029
 20
64.75490000000099
 10
189.1081100000029
 20
68.65489999999998
 10
188.3081099999991
 20
68.65489999999998
 10
188.3081099999991
 20
69.25489999999999
 10
174.3081099999999
 20
69.25489999999999
 10
174.3081099999999
 20
68.6549
 10
173.5081100000007
 20
68.6549
 10
173.5081100000007
 20
64.75490000000099
 10
174.3081099999999
 20
64.75490000000099
 10
174.3081099999999
 20
59.7548999999999
 10
173.5081100000007
 20
59.7548999999999
 10
173.5081100000007
 20
55.85489999999999
 10
174.3081099999999
 20
55.8549
 10
174.3081099999999
 20
55.25489999999999
 10
188.30762
 20
55.25489999999999
  0
LWPOLYLINE
  5
2A3
330
1E
100
AcDbEntity
  8
0
 62
     7
100
AcDbPolyline
 90
       21
 70
     0
 43
0.0
 10
188.3081099999991
 20
79.0688
 10
188.3081099999991
 20
79.66879999999999
 10
189.1081100000029
 20
79.66879999999999
 10
189.1081100000029
 20
83.56879999999991
 10
188.3081099999991
 20
83.56879999999989
 10
188.3081099999991
 20
88.56880000000101
 10
189.1081100000029
 20
88.56880000000099
 10
189.1081100000029
 20
92.46879999999999
 10
188.3081099999991
 20
92.46879999999999
 10
188.3081099999991
 20
93.06879999999999
 10
174.3081099999999
 20
93.06879999999999
 10
174.3081099999999
 20
92.4688
 10
173.5081100000007
 20
92.4688
 10
173.5081100000007
 20
88.56880000000099
 10
174.3081099999999
 20
88.56880000000099
 10
174.3081099999999
 20
83.56879999999991
 10
173.5081100000007
 20
83.56879999999991
 10
173.5081100000007
 20
79.66879999999999
 10
174.3081099999999
 20
79.6688
 10
174.3081099999999
 20
79.0688
 10
188.30762
 20
79.0688
  0
LWPOLYLINE
  5
2A4
330
1E
100
AcDbEntity
  8
0
 62
     7
100
AcDbPolyline
 90
       21
 70
     0
 43
0.0
 10
212.120609999999
 20
31.44239999999999
 10
212.120609999999
 20
32.04239999999998
 10
212.9206100000029
 20
32.04239999999998
 10
212.9206100000029
 20
35.9423999999999
 10
212.120609999999
 20
35.94239999999989
 10
212.120609999999
 20
40.942400000001
 10
212.9206100000029
 20
40.94240000000098
 10
212.9206100000029
 20
44.84239999999998
 10
212.120609999999
 20
44.84239999999998
 10
212.120609999999
 20
45.44239999999999
 10
198.1206099999999
 20
45.44239999999999
 10
198.1206099999999
 20
44.84239999999999
 10
197.3206100000007
 20
44.84239999999999
 10
197.3206100000007
 20
40.94240000000098
 10
198.1206099999999
 20
40.94240000000098
 10
198.1206099999999
 20
35.9423999999999
 10
197.3206100000007
 20
35.9423999999999
 10
197.3206100000007
 20
32.04239999999998
 10
198.1206099999999
 20
32.0424
 10
198.1206099999999
 20
31.44239999999999
 10
212.1201199999999
 20
31.44239999999999
  0
LWPOLYLINE
  5
2A5
330
1E
100
AcDbEntity
  8
0
 62
     7
100
AcDbPolyline
 90
       21
 70
     0
 43
0.0
 10
212.120609999999
 20
55.25489999999999
 10
212.120609999999
 20
55.85489999999999
 10
212.9206100000029
 20
55.85489999999999
 10
212.9206100000029
 20
59.7548999999999
 10
212.120609999999
 20
59.75489999999989
 10
212.120609999999
 20
64.754900000001
 10
212.9206100000029
 20
64.75490000000099
 10
212.9206100000029
 20
68.65489999999998
 10
212.120609999999
 20
68.65489999999998
 10
212.120609999999
 20
69.25489999999999
 10
198.1206099999999
 20
69.25489999999999
 10
198.1206099999999
 20
68.6549
 10
197.3206100000007
 20
68.6549
 10
197.3206100000007
 20
64.75490000000099
 10
198.1206099999999
 20
64.75490000000099
 10
198.1206099999999
 20
59.7548999999999
 10
197.3206100000007
 20
59.7548999999999
 10
197.3206100000007
 20
55.85489999999999
 10
198.1206099999999
 20
55.8549
 10
198.1206099999999
 20
55.25489999999999
 10
212.1201199999999
 20
55.25489999999999
  0
LWPOLYLINE
  5
2A6
330
1E
100
AcDbEntity
  8
0
 62
     7
100
AcDbPolyline
 90
       21
 70
     0
 43
0.0
 10
212.120609999999
 20
79.0688
 10
212.120609999999
 20
79.66879999999999
 10
212.9206100000029
 20
79.66879999999999
 10
212.9206100000029
 20
83.56879999999991
 10
212.120609999999
 20
83.56879999999989
 10
212.120609999999
 20
88.56880000000101
 10
212.9206100000029
 20
88.56880000000099
 10
212.9206100000029
 20
92.46879999999999
 10
212.120609999999
 20
92.46879999999999
 10
212.120609999999
 20
93.06879999999999
 10
198.1206099999999
 20
93.06879999999999
 10
198.1206099999999
 20
92.4688
 10
197.3206100000007
 20
92.4688
 10
197.3206100000007
 20
88.56880000000099
 10
198.1206099999999
 20
88.56880000000099
 10
198.1206099999999
 20
83.56879999999991
 10
197.3206100000007
 20
83.56879999999991
 10
197.3206100000007
 20
79.66879999999999
 10
198.1206099999999
 20
79.6688
 10
198.1206099999999
 20
79.0688
 10
212.1201199999999
 20
79.0688
  0
ARC
  5
2A7
330
1E
100
AcDbEntity
  8
0
 62
     0
100
AcDbCircle
 10
241.45781
 20
122.405
 30
0.0
 40
2.0
100
AcDbArc
 50
0.0
 51
90.0
  0
CIRCLE
  5
2AF
330
1E
100
AcDbEntity
  8
0
  6
Continuous
100
AcDbCircle
 10
240.95781
 20
121.906
 30
0.0
 40
1.501382363024153
  0
ARC
  5
2B2
330
1E
100
AcDbEntity
  8
0
 62
     0
100
AcDbCircle
 10
241.4578099999999
 20
2.105108999999998
 30
0.0
 40
2.0
100
AcDbArc
 50
270.0
 51
0.0
  0
CIRCLE
  5
2B3
330
1E
100
AcDbEntity
  8
0
  6
Continuous
100
AcDbCircle
 10
240.95781
 20
2.604869999999991
 30
0.0
 40
1.501382363024153
  0
CIRCLE
  5
2B8
330
1E
100
AcDbEntity
  8
0
  6
Continuous
100
AcDbCircle
 10
2.593469999999996
 20
2.605869999999995
 30
0.0
 40
1.501382363024153
  0
CIRCLE
  5
2B9
330
1E
100
AcDbEntity
  8
0
  6
Continuous
100
AcDbCircle
 10
2.593469999999996
 20
121.90532
 30
0.0
 40
1.501382363024153
  0
ARC
  5
2BA
330
1E
100
AcDbEntity
  8
0
 62
     0
100
AcDbCircle
 10
2.093706599999999
 20
122.406
 30
0.0
 40
2.0
100
AcDbArc
 50
90.00000000000003
 51
180.0
  0
ARC
  5
2BB
330
1E
100
AcDbEntity
  8
0
 62
     0
100
AcDbCircle
 10
2.093706599999999
 20
2.106109
 30
0.0
 40
2.0
100
AcDbArc
 50
180.0
 51
270.0
  0
INSERT
  5
132
330
1A
100
AcDbEntity
 67
     1
  8
0
  6
Continuous
 60
     1
100
AcDbBlockReference
  2
ADCADD_ZZ
 10
0.0
 20
0.0
 30
0.0
1001
ADCADD_ZZ
1070
   205
1070
     7
1070
   209
1070
     1
1070
   231
1070
     0
1070
   235
1070
     1
1070
   236
1070
     2
1070
   237
1070
     4
1070
   238
1070
     4
1070
   239
1070
     2
1070
   240
1070
     0
1070
   241
1070
  4096
1070
   242
1070
     2
1070
   244
1070
     0
1070
   245
1070
     1
1070
   303
1040
0.0833333333333333
1070
   304
1040
4.0
1070
   305
1040
40.0
1070
   306
1040
0.125
1070
   337
1040
0.0
1070
   338
1040
0.3048
1070
   339
1040
0.0625
1070
   340
1040
40.0
1070
   341
1040
4.0
1070
   342
1040
40.0
1070
   530
1010
0.0
1020
0.0
1030
0.0
1070
   531
1010
0.0
1020
0.0
1030
0.0
1070
   107
1000

1070
   108
1000

1070
   135
1000
STANDARD
1070
   136
1000
'
1070
   137
1000
m
1001
SDSK_PMN
1070
   100
1000
ACADARCH
1070
   300
1040
2457591.80470169
  0
ENDSEC
  0
SECTION
  2
OBJECTS
  0
DICTIONARY
  5
C
330
0
100
AcDbDictionary
281
     1
  3
ACAD_GROUP
350
D
  3
ACAD_LAYOUT
350
19
  3
ACAD_MLINESTYLE
350
16
  3
ACAD_PLOTSETTINGS
350
18
  3
ACAD_PLOTSTYLENAME
350
E
  3
AcDbVariableDictionary
350
2C6
  3
ADE_QUERY_LIBRARY
350
2C3
  3
AEC_VARS
350
12E
  3
ASE_INDEX_DICTIONARY
350
2C0
1001
ADE
1000
ADE02C004
1000
[Query]
1000
CaseSensitiveMatch=0
1000
SaveCurrQueryInSession=1
1000
MkSelSetWithQryObj=0
1000
ShowBlockAsInsPt=0
1000
CreateAssociativeHatchObjects=0
1000
ReferenceBoundaryForAreaLocation=1
1000
ShowImageAsBoundary=1
1000
DefaultJoinOperator=2
1000
ColorForAdd=red
1000
ColorForRemove=red
1000
BlockLocnForQuery=1
1000
TextLocnForQuery=1
1000
[Save Back]
1000
RedefineBlockDefinitions=1
1000
RedefineLayerDefinitions=1
1000
RedefineTextStyleDefinitions=1
1000
RemoveUnusedGroups=1
1000
EraseSavedBackObjects=1
1000
RemoveLockAfterSave=1
1000
CreateHistoryFileOfChanges=0
1000
CreateBackupFileOfSourceDwg=1
1000
DontAddObjectsToSaveSet=0
1000
MarkObjectsForEditingWithoutPrompting=0
1000
[Coordinate Transformation]
1000
RestoreLastActiveDwgsOnStartup=1
1000
ActivateDwgsOnAttach=1
1000
AdjustSizesAndScalesForChangesInUnits=1
1000
AdjustRotationsForMapDistortions=1
1000
AdjustSizesAndScalesForMapDistortions=1
1000
AdjustElevations=1
1000
AdjustZeroRotationObjects=1
1000
ReconnectDbOnWSOpen=1
1000
NoOfSQLConditionsInHistory=10
  0
DICTIONARY
  5
D
102
{ACAD_REACTORS
330
C
102
}
330
C
100
AcDbDictionary
281
     1
  0
DICTIONARY
  5
19
102
{ACAD_REACTORS
330
C
102
}
330
C
100
AcDbDictionary
281
     1
  3
Layout1
350
1D
  3
Model
350
21
  0
DICTIONARY
  5
16
102
{ACAD_REACTORS
330
C
102
}
330
C
100
AcDbDictionary
281
     1
  3
Standard
350
17
  0
DICTIONARY
  5
18
102
{ACAD_REACTORS
330
C
102
}
330
C
100
AcDbDictionary
281
     1
  0
ACDBDICTIONARYWDFLT
  5
E
102
{ACAD_REACTORS
330
C
102
}
330
C
100
AcDbDictionary
281
     1
  3
Normal
350
F
100
AcDbDictionaryWithDefault
340
F
  0
DICTIONARY
  5
2C6
102
{ACAD_REACTORS
330
C
102
}
330
C
100
AcDbDictionary
281
     1
  3
DIMASSOC
350
2C7
  0
DICTIONARY
  5
2C3
102
{ACAD_REACTORS
330
C
102
}
330
C
100
AcDbDictionary
281
     1
  3
_CurrQry
350
2CC
  0
DICTIONARY
  5
12E
102
{ACAD_REACTORS
330
C
102
}
330
C
100
AcDbDictionary
281
     1
  3
AEC_VARS_DWG_SETUP
350
133
  0
DICTIONARY
  5
2C0
102
{ACAD_REACTORS
330
C
102
}
330
C
100
AcDbDictionary
281
     1
  3
ASEBlockHierarchyIndexRecord
350
2C2
1001
DCO15
1040
1882534422.224999
  0
LAYOUT
  5
1D
102
{ACAD_REACTORS
330
19
102
}
330
19
100
AcDbPlotSettings
  1

  2
Microsoft XPS Document Writer
  4

  6

 40
0.0
 41
0.0
 42
0.0
 43
0.0
 44
0.0
 45
0.0
 46
0.0
 47
0.0
 48
0.0
 49
0.0
140
0.0
141
0.0
142
1.0
143
1.0
 70
   688
 72
     0
 73
     0
 74
     5
  7

 75
    16
147
1.0
148
0.0
149
0.0
100
AcDbLayout
  1
Layout1
 70
     1
 71
     1
 10
0.0
 20
0.0
 11
12.0
 21
9.0
 12
0.0
 22
0.0
 32
0.0
 14
1.000000000000000E+20
 24
1.000000000000000E+20
 34
1.000000000000000E+20
 15
-1.000000000000000E+20
 25
-1.000000000000000E+20
 35
-1.000000000000000E+20
146
0.0
 13
0.0
 23
0.0
 33
0.0
 16
1.0
 26
0.0
 36
0.0
 17
0.0
 27
1.0
 37
0.0
 76
     0
330
1A
  0
LAYOUT
  5
21
102
{ACAD_REACTORS
330
19
102
}
330
19
100
AcDbPlotSettings
  1

  2
Microsoft XPS Document Writer
  4

  6

 40
0.0
 41
0.0
 42
0.0
 43
0.0
 44
0.0
 45
0.0
 46
0.0
 47
0.0
 48
0.0
 49
0.0
140
0.0
141
0.0
142
1.0
143
1.0
 70
  1712
 72
     0
 73
     0
 74
     0
  7

 75
     0
147
1.0
148
0.0
149
0.0
100
AcDbLayout
  1
Model
 70
     1
 71
     0
 10
0.0
 20
0.0
 11
12.0
 21
9.0
 12
0.0
 22
0.0
 32
0.0
 14
0.0
 24
0.0
 34
0.0
 15
0.0
 25
0.0
 35
0.0
146
0.0
 13
0.0
 23
0.0
 33
0.0
 16
1.0
 26
0.0
 36
0.0
 17
0.0
 27
1.0
 37
0.0
 76
     0
330
1E
  0
MLINESTYLE
  5
17
102
{ACAD_REACTORS
330
16
102
}
330
16
100
AcDbMlineStyle
  2
STANDARD
 70
     0
  3

 62
   256
 51
90.0
 52
90.0
 71
     2
 49
0.5
 62
   256
  6
BYLAYER
 49
-0.5
 62
   256
  6
BYLAYER
  0
ACDBPLACEHOLDER
  5
F
102
{ACAD_REACTORS
330
E
102
}
330
E
  0
DICTIONARYVAR
  5
2C7
102
{ACAD_REACTORS
330
2C6
102
}
330
2C6
100
DictionaryVariables
280
     0
  1
1
  0
XRECORD
  5
2CC
102
{ACAD_REACTORS
330
2C3
102
}
330
2C3
100
AcDbXrecord
280
     1
1000
ADE02C001
1070
     1
1070
     0
1002
{
1002
}
1002
{
1002
}
1002
{
1002
}
1000

  0
AEC_VARS_DWG_SETUP
  5
133
102
{ACAD_REACTORS
330
12E
102
}
330
12E
100
AecDbObject
170
    30
102
{AEC_SUBOBJECT
300
AecImpDictRecord
100
AecImpObj
170
    30
  3

100
AecImpDictRecord
170
    30
  3

102
AEC_SUBOBJECT}
102
{AEC_NULLOBJECT}
100
AecDbDictRecord
170
    30
100
AecDbVars
170
    30
100
AecDbVarsDwgSetup
170
    30
 70
     0
 71
    30
 72
     2
 73
     2
 74
     1
 75
     0
 76
     4
 77
     2
 78
     4
 79
     2
 10
0.0
 20
0.0
 30
0.0
 11
0.0
 21
0.0
 31
0.0
 50
0.0
 40
40.0
 41
4.0
 42
0.125
 44
0.0625
 45
40.0
 46
0.3048
 90
        0
 91
     4096
 92
        0
270
    56
271
     2
272
   130
273
     2
  2
 Sq.Ft.
  3
 Cu.Ft.
  4
ACADARCH
  6
STANDARD
  7
'
  8
m
330
132
  9

 43
0.5
  5

171
     1
172
     1
173
     1
174
     1
175
    31
1001
AEC_DWGVARSSETUP_DATA
1070
    70
1070
     0
1070
    71
1070
    30
1070
    72
1070
     2
1070
    73
1070
     2
1070
    74
1070
     1
1070
    75
1070
     0
1070
    76
1070
     4
1070
    77
1070
     2
1070
    78
1070
     4
1070
    10
1010
0.0
1020
0.0
1030
0.0
1070
    11
1010
0.0
1020
0.0
1030
0.0
1070
    50
1040
0.0
1070
    40
1040
40.0
1070
    41
1040
4.0
1070
    42
1040
0.125
1070
   270
1070
    56
1070
   271
1070
     2
1070
     2
1000
 Sq.Ft.
1070
   272
1070
   130
1070
   273
1070
     2
1070
     3
1000
 Cu.Ft.
1070
    90
1070
     0
1070
    91
1070
  4096
1070
    92
1070
     0
1070
    79
1070
     2
1070
     6
1000
STANDARD
1070
     7
1000
'
1070
     8
1000
m
1070
    44
1040
0.0625
1070
    45
1040
40.0
1070
    46
1040
0.3048
1070
     4
1000
ACADARCH
1070
     9
1000

1070
    43
1040
0.5
1070
     5
1000

1070
   171
1070
     1
1070
   172
1070
     1
1070
   173
1070
     1
1070
   174
1070
     1
1070
   175
1070
    31
1070
   320
1005
132
  0
XRECORD
  5
2C2
102
{ACAD_REACTORS
330
2C0
102
}
330
2C0
100
AcDbXrecord
280
     1
330
132
  0
ENDSEC
  0
EOF
